<svg xmlns="http://www.w3.org/2000/svg" xmlns:xlink="http://www.w3.org/1999/xlink" width="500" zoomAndPan="magnify" viewBox="0 0 375 374.999991" height="500" preserveAspectRatio="xMidYMid meet" version="1.0"><defs><g/><clipPath id="bf756b5df6"><path d="M 105.578125 183.722656 L 113.828125 183.722656 L 113.828125 192.722656 L 105.578125 192.722656 Z M 105.578125 183.722656 " clip-rule="nonzero"/></clipPath><clipPath id="6bcadd9790"><path d="M 109 184 L 113.828125 184 L 113.828125 192 L 109 192 Z M 109 184 " clip-rule="nonzero"/></clipPath><clipPath id="863518b7d3"><path d="M 263.847656 183.722656 L 272.097656 183.722656 L 272.097656 192.722656 L 263.847656 192.722656 Z M 263.847656 183.722656 " clip-rule="nonzero"/></clipPath></defs><rect x="-37.5" width="450" fill="#ffffff" y="-37.499999" height="449.999989" fill-opacity="1"/><rect x="-37.5" width="450" fill="#ffffff" y="-37.499999" height="449.999989" fill-opacity="1"/><rect x="-37.5" width="450" fill="#ffffff" y="-37.499999" height="449.999989" fill-opacity="1"/><g fill="#000000" fill-opacity="1"><g transform="translate(75.878109, 234.908626)"><g><path d="M 63.421875 -31.453125 L 80.171875 -26.203125 C 75.191406 -7.765625 63.367188 1.453125 44.703125 1.453125 C 33.296875 1.453125 23.925781 -2.429688 16.59375 -10.203125 C 9.269531 -17.984375 5.609375 -28.601562 5.609375 -42.0625 C 5.609375 -56.226562 9.289062 -67.257812 16.65625 -75.15625 C 24.03125 -83.050781 33.6875 -87 45.625 -87 C 56.164062 -87 64.707031 -83.882812 71.25 -77.65625 C 75.132812 -74 78.03125 -68.789062 79.9375 -62.03125 L 62.84375 -57.828125 C 61.832031 -62.296875 59.726562 -65.800781 56.53125 -68.34375 C 53.34375 -70.894531 49.4375 -72.171875 44.8125 -72.171875 C 38.4375 -72.171875 33.269531 -69.90625 29.3125 -65.375 C 25.363281 -60.84375 23.390625 -53.460938 23.390625 -43.234375 C 23.390625 -32.492188 25.34375 -24.8125 29.25 -20.1875 C 33.164062 -15.5625 38.238281 -13.25 44.46875 -13.25 C 49.09375 -13.25 53.054688 -14.722656 56.359375 -17.671875 C 59.671875 -20.628906 62.023438 -25.222656 63.421875 -31.453125 Z M 63.421875 -31.453125 "/></g></g></g><g fill="#000000" fill-opacity="1"><g transform="translate(150.945297, 234.908626)"><g><path d="M 4.3125 -27.828125 L 21.125 -29.53125 C 22.09375 -23.84375 24.132812 -19.664062 27.25 -17 C 30.363281 -14.34375 34.546875 -13.015625 39.796875 -13.015625 C 45.359375 -13.015625 49.554688 -14.191406 52.390625 -16.546875 C 55.234375 -18.898438 56.65625 -21.671875 56.65625 -24.859375 C 56.65625 -26.835938 56.050781 -28.546875 54.84375 -29.984375 C 53.644531 -31.429688 51.582031 -32.675781 48.65625 -33.71875 C 46.5625 -34.425781 41.9375 -35.65625 34.78125 -37.40625 C 25.519531 -39.695312 19.019531 -42.515625 15.28125 -45.859375 C 10.03125 -50.566406 7.40625 -56.304688 7.40625 -63.078125 C 7.40625 -67.472656 8.640625 -71.566406 11.109375 -75.359375 C 13.585938 -79.148438 17.160156 -82.035156 21.828125 -84.015625 C 26.492188 -86.003906 32.09375 -87 38.625 -87 C 49.363281 -87 57.445312 -84.644531 62.875 -79.9375 C 68.300781 -75.226562 71.171875 -68.945312 71.484375 -61.09375 L 54.15625 -60.328125 C 53.414062 -64.722656 51.828125 -67.875 49.390625 -69.78125 C 46.960938 -71.6875 43.316406 -72.640625 38.453125 -72.640625 C 34.171875 -72.640625 30.675781 -71.910156 27.96875 -70.453125 C 25.269531 -68.992188 23.921875 -66.941406 23.921875 -64.296875 C 23.921875 -62.316406 24.796875 -60.609375 26.546875 -59.171875 C 28.691406 -57.335938 33.960938 -55.421875 42.359375 -53.421875 C 50.765625 -51.421875 56.976562 -49.367188 61 -47.265625 C 65.03125 -45.160156 68.179688 -42.25 70.453125 -38.53125 C 72.734375 -34.820312 73.875 -30.265625 73.875 -24.859375 C 73.875 -19.992188 72.507812 -15.429688 69.78125 -11.171875 C 67.0625 -6.910156 63.210938 -3.71875 58.234375 -1.59375 C 53.253906 0.519531 47.066406 1.578125 39.671875 1.578125 C 18.316406 1.578125 6.53125 -8.222656 4.3125 -27.828125 Z M 4.3125 -27.828125 "/></g></g></g><g fill="#000000" fill-opacity="1"><g transform="translate(219.418803, 234.908626)"><g><path d="M 4.3125 -27.828125 L 21.125 -29.53125 C 22.09375 -23.84375 24.132812 -19.664062 27.25 -17 C 30.363281 -14.34375 34.546875 -13.015625 39.796875 -13.015625 C 45.359375 -13.015625 49.554688 -14.191406 52.390625 -16.546875 C 55.234375 -18.898438 56.65625 -21.671875 56.65625 -24.859375 C 56.65625 -26.835938 56.050781 -28.546875 54.84375 -29.984375 C 53.644531 -31.429688 51.582031 -32.675781 48.65625 -33.71875 C 46.5625 -34.425781 41.9375 -35.65625 34.78125 -37.40625 C 25.519531 -39.695312 19.019531 -42.515625 15.28125 -45.859375 C 10.03125 -50.566406 7.40625 -56.304688 7.40625 -63.078125 C 7.40625 -67.472656 8.640625 -71.566406 11.109375 -75.359375 C 13.585938 -79.148438 17.160156 -82.035156 21.828125 -84.015625 C 26.492188 -86.003906 32.09375 -87 38.625 -87 C 49.363281 -87 57.445312 -84.644531 62.875 -79.9375 C 68.300781 -75.226562 71.171875 -68.945312 71.484375 -61.09375 L 54.15625 -60.328125 C 53.414062 -64.722656 51.828125 -67.875 49.390625 -69.78125 C 46.960938 -71.6875 43.316406 -72.640625 38.453125 -72.640625 C 34.171875 -72.640625 30.675781 -71.910156 27.96875 -70.453125 C 25.269531 -68.992188 23.921875 -66.941406 23.921875 -64.296875 C 23.921875 -62.316406 24.796875 -60.609375 26.546875 -59.171875 C 28.691406 -57.335938 33.960938 -55.421875 42.359375 -53.421875 C 50.765625 -51.421875 56.976562 -49.367188 61 -47.265625 C 65.03125 -45.160156 68.179688 -42.25 70.453125 -38.53125 C 72.734375 -34.820312 73.875 -30.265625 73.875 -24.859375 C 73.875 -19.992188 72.507812 -15.429688 69.78125 -11.171875 C 67.0625 -6.910156 63.210938 -3.71875 58.234375 -1.59375 C 53.253906 0.519531 47.066406 1.578125 39.671875 1.578125 C 18.316406 1.578125 6.53125 -8.222656 4.3125 -27.828125 Z M 4.3125 -27.828125 "/></g></g></g><path fill="#ffffff" d="M 37.378906 176.519531 L 377.410156 176.519531 L 377.410156 197.628906 L 37.378906 197.628906 L 37.378906 176.519531 " fill-opacity="1" fill-rule="nonzero"/><g fill="#000000" fill-opacity="1"><g transform="translate(41.254953, 192.675679)"><g/></g></g><g fill="#000000" fill-opacity="1"><g transform="translate(50.824973, 192.675679)"><g/></g></g><g fill="#000000" fill-opacity="1"><g transform="translate(60.394993, 192.675679)"><g/></g></g><g fill="#000000" fill-opacity="1"><g transform="translate(69.965012, 192.675679)"><g/></g></g><g fill="#000000" fill-opacity="1"><g transform="translate(79.535032, 192.675679)"><g/></g></g><g fill="#000000" fill-opacity="1"><g transform="translate(89.105052, 192.675679)"><g/></g></g><g fill="#000000" fill-opacity="1"><g transform="translate(98.675072, 192.675679)"><g/></g></g><g fill="#000000" fill-opacity="1"><g transform="translate(108.245088, 192.675679)"><g/></g></g><g fill="#000000" fill-opacity="1"><g transform="translate(117.812929, 192.675679)"><g><path d="M 6.882812 -6.289062 C 7.316406 -5.773438 8.167969 -6.433594 7.71875 -6.949219 C 6.867188 -7.914062 5.949219 -8.296875 4.808594 -8.296875 C 1.59375 -8.296875 0.628906 -5.710938 0.628906 -4.085938 C 0.628906 -1.703125 2.300781 0.160156 4.726562 0.160156 C 5.902344 0.160156 7.09375 -0.335938 7.863281 -1.285156 C 8.394531 -1.898438 7.445312 -2.507812 7.058594 -1.976562 C 6.496094 -1.222656 5.582031 -0.902344 4.746094 -0.902344 C 2.960938 -0.902344 1.800781 -2.332031 1.800781 -4.054688 C 1.800781 -5.855469 2.976562 -7.253906 4.695312 -7.253906 C 5.484375 -7.253906 6.289062 -6.980469 6.882812 -6.289062 Z M 6.882812 -6.289062 "/></g></g></g><g fill="#000000" fill-opacity="1"><g transform="translate(131.643937, 192.675679)"><g><path d="M 0.449219 -1.816406 C 0.773438 -0.210938 2.832031 0.160156 4.164062 0.160156 C 5.5 0.160156 7.816406 -0.371094 7.816406 -2.394531 C 7.816406 -4.40625 5.933594 -4.566406 4.164062 -4.726562 C 2.878906 -4.824219 1.6875 -4.808594 1.6875 -5.839844 C 1.6875 -6.835938 3.085938 -7.238281 4.019531 -7.238281 C 4.746094 -7.238281 6.09375 -7.171875 6.449219 -6.238281 C 6.65625 -5.628906 7.769531 -5.933594 7.542969 -6.65625 C 6.980469 -8.105469 5.257812 -8.296875 4.019531 -8.296875 C 2.476562 -8.296875 0.515625 -7.574219 0.515625 -5.855469 C 0.515625 -3.875 2.378906 -3.730469 4.117188 -3.570312 C 5.417969 -3.472656 6.640625 -3.425781 6.640625 -2.394531 C 6.640625 -1.285156 4.953125 -0.882812 4.164062 -0.882812 C 2.992188 -0.882812 1.738281 -1.300781 1.574219 -2.027344 C 1.429688 -2.832031 0.257812 -2.492188 0.449219 -1.816406 Z M 0.449219 -1.816406 "/></g></g></g><g fill="#000000" fill-opacity="1"><g transform="translate(145.426708, 192.675679)"><g><path d="M 0.449219 -1.816406 C 0.773438 -0.210938 2.832031 0.160156 4.164062 0.160156 C 5.5 0.160156 7.816406 -0.371094 7.816406 -2.394531 C 7.816406 -4.40625 5.933594 -4.566406 4.164062 -4.726562 C 2.878906 -4.824219 1.6875 -4.808594 1.6875 -5.839844 C 1.6875 -6.835938 3.085938 -7.238281 4.019531 -7.238281 C 4.746094 -7.238281 6.09375 -7.171875 6.449219 -6.238281 C 6.65625 -5.628906 7.769531 -5.933594 7.542969 -6.65625 C 6.980469 -8.105469 5.257812 -8.296875 4.019531 -8.296875 C 2.476562 -8.296875 0.515625 -7.574219 0.515625 -5.855469 C 0.515625 -3.875 2.378906 -3.730469 4.117188 -3.570312 C 5.417969 -3.472656 6.640625 -3.425781 6.640625 -2.394531 C 6.640625 -1.285156 4.953125 -0.882812 4.164062 -0.882812 C 2.992188 -0.882812 1.738281 -1.300781 1.574219 -2.027344 C 1.429688 -2.832031 0.257812 -2.492188 0.449219 -1.816406 Z M 0.449219 -1.816406 "/></g></g></g><g fill="#000000" fill-opacity="1"><g transform="translate(159.209478, 192.675679)"><g/></g></g><g fill="#000000" fill-opacity="1"><g transform="translate(168.779498, 192.675679)"><g><path d="M 2.121094 -0.546875 L 2.121094 -10.195312 C 2.121094 -10.5 1.867188 -10.742188 1.542969 -10.742188 C 1.191406 -10.742188 0.949219 -10.5 0.949219 -10.195312 L 0.949219 -0.546875 C 0.949219 -0.242188 1.191406 0 1.542969 0 C 1.867188 0 2.121094 -0.242188 2.121094 -0.546875 Z M 2.121094 -0.546875 "/></g></g></g><g fill="#000000" fill-opacity="1"><g transform="translate(177.207906, 192.675679)"><g><path d="M 8.972656 -4.117188 C 8.925781 -7.027344 6.914062 -8.296875 4.746094 -8.296875 C 2.6875 -8.296875 0.644531 -6.820312 0.644531 -4.101562 C 0.644531 -1.671875 2.285156 0.160156 4.824219 0.160156 C 5.871094 0.175781 6.949219 -0.113281 7.6875 -0.804688 C 8.316406 -1.449219 7.476562 -2.105469 6.914062 -1.59375 C 6.289062 -1.109375 5.515625 -0.917969 4.777344 -0.917969 C 3.167969 -0.917969 2.042969 -2.058594 1.832031 -3.378906 L 8.1875 -3.378906 C 8.84375 -3.378906 8.972656 -3.761719 8.972656 -4.117188 Z M 1.785156 -4.359375 C 1.929688 -6.289062 3.3125 -7.203125 4.824219 -7.203125 C 6.175781 -7.203125 7.6875 -6.289062 7.847656 -4.359375 Z M 1.785156 -4.359375 "/></g></g></g><g fill="#000000" fill-opacity="1"><g transform="translate(192.341331, 192.675679)"><g><path d="M 0.449219 -1.816406 C 0.773438 -0.210938 2.832031 0.160156 4.164062 0.160156 C 5.5 0.160156 7.816406 -0.371094 7.816406 -2.394531 C 7.816406 -4.40625 5.933594 -4.566406 4.164062 -4.726562 C 2.878906 -4.824219 1.6875 -4.808594 1.6875 -5.839844 C 1.6875 -6.835938 3.085938 -7.238281 4.019531 -7.238281 C 4.746094 -7.238281 6.09375 -7.171875 6.449219 -6.238281 C 6.65625 -5.628906 7.769531 -5.933594 7.542969 -6.65625 C 6.980469 -8.105469 5.257812 -8.296875 4.019531 -8.296875 C 2.476562 -8.296875 0.515625 -7.574219 0.515625 -5.855469 C 0.515625 -3.875 2.378906 -3.730469 4.117188 -3.570312 C 5.417969 -3.472656 6.640625 -3.425781 6.640625 -2.394531 C 6.640625 -1.285156 4.953125 -0.882812 4.164062 -0.882812 C 2.992188 -0.882812 1.738281 -1.300781 1.574219 -2.027344 C 1.429688 -2.832031 0.257812 -2.492188 0.449219 -1.816406 Z M 0.449219 -1.816406 "/></g></g></g><g fill="#000000" fill-opacity="1"><g transform="translate(206.124105, 192.675679)"><g><path d="M 0.449219 -1.816406 C 0.773438 -0.210938 2.832031 0.160156 4.164062 0.160156 C 5.5 0.160156 7.816406 -0.371094 7.816406 -2.394531 C 7.816406 -4.40625 5.933594 -4.566406 4.164062 -4.726562 C 2.878906 -4.824219 1.6875 -4.808594 1.6875 -5.839844 C 1.6875 -6.835938 3.085938 -7.238281 4.019531 -7.238281 C 4.746094 -7.238281 6.09375 -7.171875 6.449219 -6.238281 C 6.65625 -5.628906 7.769531 -5.933594 7.542969 -6.65625 C 6.980469 -8.105469 5.257812 -8.296875 4.019531 -8.296875 C 2.476562 -8.296875 0.515625 -7.574219 0.515625 -5.855469 C 0.515625 -3.875 2.378906 -3.730469 4.117188 -3.570312 C 5.417969 -3.472656 6.640625 -3.425781 6.640625 -2.394531 C 6.640625 -1.285156 4.953125 -0.882812 4.164062 -0.882812 C 2.992188 -0.882812 1.738281 -1.300781 1.574219 -2.027344 C 1.429688 -2.832031 0.257812 -2.492188 0.449219 -1.816406 Z M 0.449219 -1.816406 "/></g></g></g><g fill="#000000" fill-opacity="1"><g transform="translate(219.906878, 192.675679)"><g><path d="M 4.777344 0.160156 C 7.203125 0.160156 8.972656 -1.65625 8.972656 -4.101562 C 8.972656 -6.402344 7.222656 -8.296875 4.777344 -8.296875 C 2.363281 -8.296875 0.578125 -6.511719 0.578125 -4.179688 C 0.578125 -1.785156 2.21875 0.160156 4.777344 0.160156 Z M 4.761719 -7.203125 C 6.273438 -7.203125 7.800781 -6.191406 7.800781 -4.019531 C 7.800781 -2.414062 6.578125 -0.949219 4.777344 -0.949219 C 2.976562 -0.949219 1.769531 -2.332031 1.769531 -4.054688 C 1.769531 -6.144531 3.214844 -7.203125 4.761719 -7.203125 Z M 4.761719 -7.203125 "/></g></g></g><g fill="#000000" fill-opacity="1"><g transform="translate(234.879519, 192.675679)"><g><path d="M 7.785156 -4.695312 L 7.785156 -0.5625 C 7.785156 -0.210938 8.023438 0 8.378906 0 C 8.75 0 8.957031 -0.210938 8.957031 -0.5625 L 8.957031 -4.695312 C 8.957031 -7.011719 7.171875 -8.296875 5.308594 -8.296875 C 4.054688 -8.296875 2.8125 -7.800781 2.234375 -6.625 L 2.234375 -7.558594 C 2.234375 -7.945312 1.945312 -8.136719 1.65625 -8.136719 C 1.367188 -8.136719 1.078125 -7.945312 1.078125 -7.574219 L 1.078125 -0.5625 C 1.078125 -0.210938 1.320312 0 1.6875 0 C 2.058594 0 2.269531 -0.210938 2.269531 -0.5625 L 2.269531 -4.164062 C 2.269531 -5.917969 3.730469 -7.203125 5.292969 -7.203125 C 6.59375 -7.203125 7.785156 -6.175781 7.785156 -4.695312 Z M 7.785156 -4.695312 "/></g></g></g><g fill="#000000" fill-opacity="1"><g transform="translate(250.431002, 192.675679)"><g><path d="M 0.449219 -1.816406 C 0.773438 -0.210938 2.832031 0.160156 4.164062 0.160156 C 5.5 0.160156 7.816406 -0.371094 7.816406 -2.394531 C 7.816406 -4.40625 5.933594 -4.566406 4.164062 -4.726562 C 2.878906 -4.824219 1.6875 -4.808594 1.6875 -5.839844 C 1.6875 -6.835938 3.085938 -7.238281 4.019531 -7.238281 C 4.746094 -7.238281 6.09375 -7.171875 6.449219 -6.238281 C 6.65625 -5.628906 7.769531 -5.933594 7.542969 -6.65625 C 6.980469 -8.105469 5.257812 -8.296875 4.019531 -8.296875 C 2.476562 -8.296875 0.515625 -7.574219 0.515625 -5.855469 C 0.515625 -3.875 2.378906 -3.730469 4.117188 -3.570312 C 5.417969 -3.472656 6.640625 -3.425781 6.640625 -2.394531 C 6.640625 -1.285156 4.953125 -0.882812 4.164062 -0.882812 C 2.992188 -0.882812 1.738281 -1.300781 1.574219 -2.027344 C 1.429688 -2.832031 0.257812 -2.492188 0.449219 -1.816406 Z M 0.449219 -1.816406 "/></g></g></g><g fill="#000000" fill-opacity="1"><g transform="translate(264.209015, 192.675679)"><g/></g></g><g fill="#000000" fill-opacity="1"><g transform="translate(273.779035, 192.675679)"><g/></g></g><g fill="#000000" fill-opacity="1"><g transform="translate(283.349055, 192.675679)"><g/></g></g><g fill="#000000" fill-opacity="1"><g transform="translate(292.919074, 192.675679)"><g/></g></g><g fill="#000000" fill-opacity="1"><g transform="translate(302.489094, 192.675679)"><g/></g></g><g fill="#000000" fill-opacity="1"><g transform="translate(312.059114, 192.675679)"><g/></g></g><g fill="#000000" fill-opacity="1"><g transform="translate(321.629134, 192.675679)"><g/></g></g><g fill="#000000" fill-opacity="1"><g transform="translate(331.19915, 192.675679)"><g/></g></g><g fill="#000000" fill-opacity="1"><g transform="translate(340.769174, 192.675679)"><g/></g></g><g fill="#000000" fill-opacity="1"><g transform="translate(350.339197, 192.675679)"><g/></g></g><g fill="#000000" fill-opacity="1"><g transform="translate(359.90922, 192.675679)"><g/></g></g><g fill="#000000" fill-opacity="1"><g transform="translate(369.479243, 192.675679)"><g/></g></g><g fill="#000000" fill-opacity="1"><g transform="translate(156.96064, 245.797685)"><g><path d="M 4.414062 -5.59375 L 4.414062 -6.328125 L 0.992188 -6.328125 L 0.992188 0 L 1.816406 0 L 1.816406 -2.800781 L 4.082031 -2.800781 L 4.082031 -3.527344 L 1.816406 -3.527344 L 1.816406 -5.59375 Z M 4.414062 -5.59375 "/></g></g></g><g fill="#000000" fill-opacity="1"><g transform="translate(164.830659, 245.797685)"><g><path d="M 5.054688 0 L 5.894531 0 L 3.5625 -6.328125 L 2.601562 -6.328125 L 0.269531 0 L 1.109375 0 L 1.648438 -1.515625 L 4.511719 -1.515625 Z M 1.90625 -2.226562 L 3.082031 -5.519531 L 4.261719 -2.226562 Z M 1.90625 -2.226562 "/></g></g></g><g fill="#000000" fill-opacity="1"><g transform="translate(174.089404, 245.797685)"><g><path d="M 2.289062 0 L 3.097656 0 L 3.097656 -3.019531 L 5.175781 -6.328125 L 4.265625 -6.328125 L 2.691406 -3.742188 L 1.117188 -6.328125 L 0.203125 -6.328125 L 2.289062 -3.011719 Z M 2.289062 0 "/></g></g></g><g fill="#000000" fill-opacity="1"><g transform="translate(182.561655, 245.797685)"><g><path d="M 4.539062 -5.949219 C 4.171875 -6.207031 3.648438 -6.328125 2.9375 -6.328125 L 0.992188 -6.328125 L 0.992188 0 L 1.796875 0 L 1.796875 -2.457031 L 2.9375 -2.457031 C 3.671875 -2.457031 4.207031 -2.609375 4.574219 -2.929688 C 5.007812 -3.261719 5.21875 -3.804688 5.21875 -4.488281 C 5.21875 -5.171875 4.992188 -5.660156 4.539062 -5.949219 Z M 4.070312 -3.503906 C 3.816406 -3.246094 3.402344 -3.160156 2.835938 -3.160156 L 1.796875 -3.160156 L 1.796875 -5.632812 L 2.835938 -5.632812 C 3.386719 -5.632812 3.789062 -5.574219 4.058594 -5.351562 C 4.269531 -5.175781 4.394531 -4.890625 4.394531 -4.457031 C 4.394531 -4.007812 4.277344 -3.707031 4.070312 -3.503906 Z M 4.070312 -3.503906 "/></g></g></g><g fill="#000000" fill-opacity="1"><g transform="translate(191.303558, 245.797685)"><g><path d="M 5.355469 0 L 3.78125 -2.542969 C 4.101562 -2.621094 4.363281 -2.75 4.574219 -2.929688 C 5.007812 -3.261719 5.21875 -3.804688 5.21875 -4.488281 C 5.21875 -5.171875 4.992188 -5.660156 4.539062 -5.949219 C 4.171875 -6.207031 3.648438 -6.328125 2.9375 -6.328125 L 0.992188 -6.328125 L 0.992188 0 L 1.796875 0 L 1.796875 -2.457031 L 2.992188 -2.457031 L 4.417969 0 Z M 1.796875 -5.632812 L 2.835938 -5.632812 C 3.386719 -5.632812 3.789062 -5.574219 4.058594 -5.351562 C 4.269531 -5.175781 4.394531 -4.890625 4.394531 -4.457031 C 4.394531 -4.007812 4.277344 -3.707031 4.070312 -3.503906 C 3.816406 -3.246094 3.402344 -3.160156 2.835938 -3.160156 L 1.796875 -3.160156 Z M 1.796875 -5.632812 "/></g></g></g><g fill="#000000" fill-opacity="1"><g transform="translate(200.252198, 245.797685)"><g><path d="M 3.703125 0.0859375 C 5.46875 0.0859375 6.84375 -1.140625 6.84375 -3.167969 C 6.84375 -5.1875 5.46875 -6.414062 3.703125 -6.414062 C 1.917969 -6.414062 0.554688 -5.1875 0.554688 -3.167969 C 0.554688 -1.140625 1.917969 0.0859375 3.703125 0.0859375 Z M 3.703125 -0.675781 C 2.390625 -0.675781 1.351562 -1.574219 1.351562 -3.167969 C 1.351562 -4.746094 2.390625 -5.644531 3.703125 -5.644531 C 5.007812 -5.644531 6.039062 -4.746094 6.039062 -3.167969 C 6.039062 -1.574219 5.007812 -0.675781 3.703125 -0.675781 Z M 3.703125 -0.675781 "/></g></g></g><g fill="#000000" fill-opacity="1"><g transform="translate(210.742368, 245.797685)"><g><path d="M 3.679688 0.0859375 C 4.765625 0.0859375 5.5625 -0.378906 5.980469 -1.1875 L 5.980469 0 L 6.640625 0 L 6.640625 -3.226562 L 3.722656 -3.226562 L 3.722656 -2.542969 L 5.855469 -2.542969 C 5.714844 -1.292969 4.855469 -0.648438 3.726562 -0.648438 C 2.367188 -0.648438 1.363281 -1.558594 1.363281 -3.160156 C 1.363281 -4.777344 2.386719 -5.671875 3.703125 -5.671875 C 4.53125 -5.671875 5.265625 -5.316406 5.691406 -4.566406 L 6.390625 -4.9375 C 5.84375 -5.910156 4.847656 -6.414062 3.703125 -6.414062 C 1.917969 -6.414062 0.554688 -5.191406 0.554688 -3.144531 C 0.554688 -1.113281 1.914062 0.0859375 3.679688 0.0859375 Z M 3.679688 0.0859375 "/></g></g></g><g clip-path="url(#bf756b5df6)"><path fill="#000000" d="M 113.828125 183.726562 L 105.578125 183.726562 L 106.304688 191.769531 L 109.703125 192.71875 L 113.101562 191.769531 Z M 113.828125 183.726562 " fill-opacity="1" fill-rule="nonzero"/></g><g clip-path="url(#6bcadd9790)"><path fill="#141414" d="M 109.703125 184.433594 L 109.703125 191.984375 L 112.421875 191.226562 L 113.027344 184.433594 Z M 109.703125 184.433594 " fill-opacity="1" fill-rule="nonzero"/></g><path fill="#ffffff" d="M 111.910156 185.617188 L 109.703125 185.617188 L 109.703125 186.566406 L 110.890625 186.566406 L 110.820312 187.511719 L 109.703125 187.511719 L 109.703125 188.457031 L 110.769531 188.457031 L 110.699219 189.523438 L 109.703125 189.855469 L 109.703125 190.847656 L 111.621094 190.234375 L 111.789062 187.511719 Z M 111.910156 185.617188 " fill-opacity="1" fill-rule="nonzero"/><path fill="#eeeeee" d="M 109.703125 185.617188 L 109.703125 186.566406 L 107.542969 186.566406 L 107.46875 185.617188 Z M 108.585938 187.511719 L 108.636719 188.457031 L 109.703125 188.457031 L 109.703125 187.511719 Z M 108.683594 188.929688 L 107.714844 188.929688 L 107.785156 190.234375 L 109.703125 190.847656 L 109.703125 189.855469 L 108.707031 189.523438 Z M 108.683594 188.929688 " fill-opacity="1" fill-rule="nonzero"/><g clip-path="url(#863518b7d3)"><path fill="#000000" d="M 272.097656 183.726562 L 263.847656 183.726562 L 264.578125 191.769531 L 267.972656 192.71875 L 271.371094 191.769531 Z M 272.097656 183.726562 " fill-opacity="1" fill-rule="nonzero"/></g><path fill="#141414" d="M 267.972656 184.433594 L 267.972656 191.984375 L 270.691406 191.226562 L 271.296875 184.433594 Z M 267.972656 184.433594 " fill-opacity="1" fill-rule="nonzero"/><path fill="#ffffff" d="M 270.183594 185.617188 L 267.972656 185.617188 L 267.972656 186.566406 L 269.164062 186.566406 L 269.089844 187.511719 L 267.972656 187.511719 L 267.972656 188.457031 L 269.042969 188.457031 L 268.96875 189.523438 L 267.972656 189.855469 L 267.972656 190.847656 L 269.890625 190.234375 L 270.0625 187.511719 Z M 270.183594 185.617188 " fill-opacity="1" fill-rule="nonzero"/><path fill="#eeeeee" d="M 267.972656 185.617188 L 267.972656 186.566406 L 265.816406 186.566406 L 265.742188 185.617188 Z M 266.859375 187.511719 L 266.90625 188.457031 L 267.972656 188.457031 L 267.972656 187.511719 Z M 266.957031 188.929688 L 265.984375 188.929688 L 266.058594 190.234375 L 267.972656 190.847656 L 267.972656 189.855469 L 266.980469 189.523438 Z M 266.957031 188.929688 " fill-opacity="1" fill-rule="nonzero"/></svg>