<svg xmlns="http://www.w3.org/2000/svg" xmlns:xlink="http://www.w3.org/1999/xlink" width="500" zoomAndPan="magnify" viewBox="0 0 375 374.999991" height="500" preserveAspectRatio="xMidYMid meet" version="1.0"><defs><g/><clipPath id="4ee6878426"><path d="M 78.007812 180.421875 L 90.757812 180.421875 L 90.757812 194.671875 L 78.007812 194.671875 Z M 78.007812 180.421875 " clip-rule="nonzero"/></clipPath><clipPath id="5fd41e925d"><path d="M 254.71875 180.421875 L 267.46875 180.421875 L 267.46875 194.671875 L 254.71875 194.671875 Z M 254.71875 180.421875 " clip-rule="nonzero"/></clipPath></defs><rect x="-37.5" width="450" fill="#ffffff" y="-37.499999" height="449.999989" fill-opacity="1"/><rect x="-37.5" width="450" fill="#ffffff" y="-37.499999" height="449.999989" fill-opacity="1"/><rect x="-37.5" width="450" fill="#ffffff" y="-37.499999" height="449.999989" fill-opacity="1"/><g fill="#000000" fill-opacity="1"><g transform="translate(44.687818, 232.917635)"><g><path d="M 8.390625 0 L 8.390625 -81.953125 L 24.9375 -81.953125 L 24.9375 -49.703125 L 57.359375 -49.703125 L 57.359375 -81.953125 L 73.953125 -81.953125 L 73.953125 0 L 57.359375 0 L 57.359375 -35.828125 L 24.9375 -35.828125 L 24.9375 0 Z M 8.390625 0 "/></g></g></g><g fill="#000000" fill-opacity="1"><g transform="translate(116.602466, 232.917635)"><g><path d="M 26.78125 0 L 26.78125 -68.140625 L 2.40625 -68.140625 L 2.40625 -81.953125 L 67.53125 -81.953125 L 67.53125 -68.140625 L 43.265625 -68.140625 L 43.265625 0 Z M 26.78125 0 "/></g></g></g><g fill="#000000" fill-opacity="1"><g transform="translate(175.771772, 232.917635)"><g><path d="M 8.109375 0 L 8.109375 -81.953125 L 32.875 -81.953125 L 47.734375 -26.109375 L 62.390625 -81.953125 L 87.265625 -81.953125 L 87.265625 0 L 71.890625 0 L 71.890625 -64.453125 L 55.625 0 L 39.75 0 L 23.484375 -64.453125 L 23.484375 0 Z M 8.109375 0 "/></g></g></g><g fill="#000000" fill-opacity="1"><g transform="translate(260.375862, 232.917635)"><g><path d="M 8.828125 0 L 8.828125 -81.953125 L 25.328125 -81.953125 L 25.328125 -13.859375 L 66.515625 -13.859375 L 66.515625 0 Z M 8.828125 0 "/></g></g></g><path fill="#ffffff" d="M 21.132812 176.980469 L 362.859375 176.980469 L 362.859375 197.203125 L 21.132812 197.203125 L 21.132812 176.980469 " fill-opacity="1" fill-rule="nonzero"/><g fill="#000000" fill-opacity="1"><g transform="translate(24.84717, 192.458319)"><g/></g></g><g fill="#000000" fill-opacity="1"><g transform="translate(34.015285, 192.458319)"><g/></g></g><g fill="#000000" fill-opacity="1"><g transform="translate(43.1834, 192.458319)"><g/></g></g><g fill="#000000" fill-opacity="1"><g transform="translate(52.351515, 192.458319)"><g/></g></g><g fill="#000000" fill-opacity="1"><g transform="translate(61.51963, 192.458319)"><g/></g></g><g fill="#000000" fill-opacity="1"><g transform="translate(70.687745, 192.458319)"><g/></g></g><g fill="#000000" fill-opacity="1"><g transform="translate(79.85586, 192.458319)"><g/></g></g><g fill="#000000" fill-opacity="1"><g transform="translate(89.023971, 192.458319)"><g/></g></g><g fill="#000000" fill-opacity="1"><g transform="translate(98.189998, 192.458319)"><g><path d="M 7.457031 -4.5 L 7.457031 -0.554688 C 7.457031 -0.214844 7.6875 0 8.027344 0 C 8.382812 0 8.582031 -0.214844 8.582031 -0.554688 L 8.582031 -4.5 C 8.582031 -6.71875 6.871094 -7.949219 5.085938 -7.949219 C 3.929688 -7.949219 2.726562 -7.503906 2.171875 -6.425781 L 2.171875 -9.800781 C 2.171875 -10.121094 1.878906 -10.292969 1.601562 -10.292969 C 1.308594 -10.292969 1.03125 -10.121094 1.03125 -9.800781 L 1.03125 -0.554688 C 1.03125 -0.214844 1.261719 0 1.617188 0 C 1.972656 0 2.171875 -0.214844 2.171875 -0.554688 L 2.171875 -4.269531 C 2.171875 -5.855469 3.574219 -6.902344 5.070312 -6.902344 C 6.316406 -6.902344 7.457031 -5.917969 7.457031 -4.5 Z M 7.457031 -4.5 "/></g></g></g><g fill="#000000" fill-opacity="1"><g transform="translate(113.088375, 192.458319)"><g><path d="M 4.421875 -7.796875 L 2.742188 -7.796875 L 2.742188 -9.628906 C 2.742188 -10.355469 1.632812 -10.367188 1.632812 -9.628906 L 1.632812 -7.796875 L 0.617188 -7.796875 C -0.0625 -7.796875 -0.109375 -6.855469 0.617188 -6.855469 L 1.632812 -6.855469 L 1.632812 -2.664062 C 1.632812 -1.203125 2.078125 0.152344 3.929688 0.152344 C 4.34375 0.152344 4.730469 0.109375 5.113281 -0.109375 C 5.808594 -0.492188 5.300781 -1.402344 4.652344 -1.03125 C 4.5 -0.941406 4.160156 -0.863281 3.929688 -0.863281 C 2.882812 -0.863281 2.742188 -1.789062 2.742188 -2.664062 L 2.742188 -6.855469 L 4.421875 -6.855469 C 5.113281 -6.855469 5.113281 -7.796875 4.421875 -7.796875 Z M 4.421875 -7.796875 "/></g></g></g><g fill="#000000" fill-opacity="1"><g transform="translate(123.981737, 192.458319)"><g><path d="M 13.988281 -4.621094 L 13.988281 -0.539062 C 13.988281 -0.199219 14.191406 0 14.542969 0 C 14.882812 0 15.113281 -0.199219 15.113281 -0.539062 L 15.113281 -4.667969 C 15.113281 -6.777344 13.328125 -7.949219 11.554688 -7.949219 C 10.183594 -7.949219 8.84375 -7.304688 8.289062 -5.933594 C 7.828125 -7.304688 6.5 -7.949219 5.160156 -7.949219 C 3.976562 -7.949219 2.882812 -7.472656 2.265625 -6.363281 L 2.265625 -7.257812 C 2.265625 -7.550781 2.066406 -7.796875 1.726562 -7.796875 C 1.417969 -7.796875 1.171875 -7.550781 1.171875 -7.257812 L 1.171875 -0.523438 C 1.171875 -0.167969 1.449219 0 1.742188 0 C 2.019531 0 2.296875 -0.167969 2.296875 -0.523438 L 2.296875 -4.003906 C 2.296875 -5.730469 3.667969 -6.886719 5.175781 -6.886719 C 5.65625 -6.886719 6.101562 -6.777344 6.5 -6.53125 C 7.210938 -6.085938 7.566406 -5.238281 7.566406 -4.359375 L 7.566406 -0.539062 C 7.566406 -0.199219 7.796875 0 8.136719 0 C 8.472656 0 8.703125 -0.199219 8.703125 -0.539062 L 8.703125 -3.929688 C 8.703125 -5.699219 9.984375 -6.902344 11.601562 -6.902344 C 12.894531 -6.902344 13.957031 -5.945312 13.988281 -4.621094 Z M 13.988281 -4.621094 "/></g></g></g><g fill="#000000" fill-opacity="1"><g transform="translate(145.395981, 192.458319)"><g><path d="M 2.035156 -0.523438 L 2.035156 -9.769531 C 2.035156 -10.0625 1.789062 -10.292969 1.480469 -10.292969 C 1.140625 -10.292969 0.910156 -10.0625 0.910156 -9.769531 L 0.910156 -0.523438 C 0.910156 -0.230469 1.140625 0 1.480469 0 C 1.789062 0 2.035156 -0.230469 2.035156 -0.523438 Z M 2.035156 -0.523438 "/></g></g></g><g fill="#000000" fill-opacity="1"><g transform="translate(153.470425, 192.458319)"><g/></g></g><g fill="#000000" fill-opacity="1"><g transform="translate(162.638543, 192.458319)"><g><path d="M 2.035156 -0.523438 L 2.035156 -9.769531 C 2.035156 -10.0625 1.789062 -10.292969 1.480469 -10.292969 C 1.140625 -10.292969 0.910156 -10.0625 0.910156 -9.769531 L 0.910156 -0.523438 C 0.910156 -0.230469 1.140625 0 1.480469 0 C 1.789062 0 2.035156 -0.230469 2.035156 -0.523438 Z M 2.035156 -0.523438 "/></g></g></g><g fill="#000000" fill-opacity="1"><g transform="translate(170.712989, 192.458319)"><g><path d="M 8.597656 -3.945312 C 8.550781 -6.734375 6.625 -7.949219 4.546875 -7.949219 C 2.574219 -7.949219 0.617188 -6.53125 0.617188 -3.929688 C 0.617188 -1.601562 2.1875 0.152344 4.621094 0.152344 C 5.625 0.167969 6.65625 -0.109375 7.363281 -0.769531 C 7.964844 -1.386719 7.164062 -2.019531 6.625 -1.523438 C 6.023438 -1.0625 5.285156 -0.878906 4.574219 -0.878906 C 3.035156 -0.878906 1.957031 -1.972656 1.757812 -3.234375 L 7.84375 -3.234375 C 8.472656 -3.234375 8.597656 -3.605469 8.597656 -3.945312 Z M 1.710938 -4.175781 C 1.847656 -6.023438 3.175781 -6.902344 4.621094 -6.902344 C 5.917969 -6.902344 7.363281 -6.023438 7.519531 -4.175781 Z M 1.710938 -4.175781 "/></g></g></g><g fill="#000000" fill-opacity="1"><g transform="translate(185.210868, 192.458319)"><g><path d="M 0.429688 -1.742188 C 0.738281 -0.199219 2.710938 0.152344 3.992188 0.152344 C 5.269531 0.152344 7.488281 -0.355469 7.488281 -2.296875 C 7.488281 -4.222656 5.683594 -4.375 3.992188 -4.53125 C 2.757812 -4.621094 1.617188 -4.605469 1.617188 -5.59375 C 1.617188 -6.546875 2.957031 -6.933594 3.851562 -6.933594 C 4.546875 -6.933594 5.839844 -6.871094 6.179688 -5.976562 C 6.378906 -5.390625 7.441406 -5.683594 7.226562 -6.378906 C 6.6875 -7.765625 5.039062 -7.949219 3.851562 -7.949219 C 2.371094 -7.949219 0.492188 -7.257812 0.492188 -5.609375 C 0.492188 -3.714844 2.28125 -3.574219 3.945312 -3.421875 C 5.191406 -3.328125 6.363281 -3.28125 6.363281 -2.296875 C 6.363281 -1.234375 4.746094 -0.847656 3.992188 -0.847656 C 2.867188 -0.847656 1.664062 -1.246094 1.511719 -1.941406 C 1.371094 -2.710938 0.246094 -2.386719 0.429688 -1.742188 Z M 0.429688 -1.742188 "/></g></g></g><g fill="#000000" fill-opacity="1"><g transform="translate(198.414817, 192.458319)"><g><path d="M 0.429688 -1.742188 C 0.738281 -0.199219 2.710938 0.152344 3.992188 0.152344 C 5.269531 0.152344 7.488281 -0.355469 7.488281 -2.296875 C 7.488281 -4.222656 5.683594 -4.375 3.992188 -4.53125 C 2.757812 -4.621094 1.617188 -4.605469 1.617188 -5.59375 C 1.617188 -6.546875 2.957031 -6.933594 3.851562 -6.933594 C 4.546875 -6.933594 5.839844 -6.871094 6.179688 -5.976562 C 6.378906 -5.390625 7.441406 -5.683594 7.226562 -6.378906 C 6.6875 -7.765625 5.039062 -7.949219 3.851562 -7.949219 C 2.371094 -7.949219 0.492188 -7.257812 0.492188 -5.609375 C 0.492188 -3.714844 2.28125 -3.574219 3.945312 -3.421875 C 5.191406 -3.328125 6.363281 -3.28125 6.363281 -2.296875 C 6.363281 -1.234375 4.746094 -0.847656 3.992188 -0.847656 C 2.867188 -0.847656 1.664062 -1.246094 1.511719 -1.941406 C 1.371094 -2.710938 0.246094 -2.386719 0.429688 -1.742188 Z M 0.429688 -1.742188 "/></g></g></g><g fill="#000000" fill-opacity="1"><g transform="translate(211.618766, 192.458319)"><g><path d="M 4.574219 0.152344 C 6.902344 0.152344 8.597656 -1.585938 8.597656 -3.929688 C 8.597656 -6.132812 6.917969 -7.949219 4.574219 -7.949219 C 2.265625 -7.949219 0.554688 -6.238281 0.554688 -4.003906 C 0.554688 -1.710938 2.125 0.152344 4.574219 0.152344 Z M 4.558594 -6.902344 C 6.007812 -6.902344 7.472656 -5.933594 7.472656 -3.851562 C 7.472656 -2.3125 6.300781 -0.910156 4.574219 -0.910156 C 2.851562 -0.910156 1.695312 -2.234375 1.695312 -3.882812 C 1.695312 -5.886719 3.082031 -6.902344 4.558594 -6.902344 Z M 4.558594 -6.902344 "/></g></g></g><g fill="#000000" fill-opacity="1"><g transform="translate(225.962612, 192.458319)"><g><path d="M 7.457031 -4.5 L 7.457031 -0.539062 C 7.457031 -0.199219 7.6875 0 8.027344 0 C 8.382812 0 8.582031 -0.199219 8.582031 -0.539062 L 8.582031 -4.5 C 8.582031 -6.71875 6.871094 -7.949219 5.085938 -7.949219 C 3.882812 -7.949219 2.695312 -7.472656 2.140625 -6.347656 L 2.140625 -7.242188 C 2.140625 -7.609375 1.863281 -7.796875 1.585938 -7.796875 C 1.308594 -7.796875 1.03125 -7.609375 1.03125 -7.257812 L 1.03125 -0.539062 C 1.03125 -0.199219 1.261719 0 1.617188 0 C 1.972656 0 2.171875 -0.199219 2.171875 -0.539062 L 2.171875 -3.992188 C 2.171875 -5.667969 3.574219 -6.902344 5.070312 -6.902344 C 6.316406 -6.902344 7.457031 -5.917969 7.457031 -4.5 Z M 7.457031 -4.5 "/></g></g></g><g fill="#000000" fill-opacity="1"><g transform="translate(240.860992, 192.458319)"><g><path d="M 0.429688 -1.742188 C 0.738281 -0.199219 2.710938 0.152344 3.992188 0.152344 C 5.269531 0.152344 7.488281 -0.355469 7.488281 -2.296875 C 7.488281 -4.222656 5.683594 -4.375 3.992188 -4.53125 C 2.757812 -4.621094 1.617188 -4.605469 1.617188 -5.59375 C 1.617188 -6.546875 2.957031 -6.933594 3.851562 -6.933594 C 4.546875 -6.933594 5.839844 -6.871094 6.179688 -5.976562 C 6.378906 -5.390625 7.441406 -5.683594 7.226562 -6.378906 C 6.6875 -7.765625 5.039062 -7.949219 3.851562 -7.949219 C 2.371094 -7.949219 0.492188 -7.257812 0.492188 -5.609375 C 0.492188 -3.714844 2.28125 -3.574219 3.945312 -3.421875 C 5.191406 -3.328125 6.363281 -3.28125 6.363281 -2.296875 C 6.363281 -1.234375 4.746094 -0.847656 3.992188 -0.847656 C 2.867188 -0.847656 1.664062 -1.246094 1.511719 -1.941406 C 1.371094 -2.710938 0.246094 -2.386719 0.429688 -1.742188 Z M 0.429688 -1.742188 "/></g></g></g><g fill="#000000" fill-opacity="1"><g transform="translate(254.061253, 192.458319)"><g/></g></g><g fill="#000000" fill-opacity="1"><g transform="translate(263.229368, 192.458319)"><g/></g></g><g fill="#000000" fill-opacity="1"><g transform="translate(272.397483, 192.458319)"><g/></g></g><g fill="#000000" fill-opacity="1"><g transform="translate(281.565598, 192.458319)"><g/></g></g><g fill="#000000" fill-opacity="1"><g transform="translate(290.733713, 192.458319)"><g/></g></g><g fill="#000000" fill-opacity="1"><g transform="translate(299.901828, 192.458319)"><g/></g></g><g fill="#000000" fill-opacity="1"><g transform="translate(309.069943, 192.458319)"><g/></g></g><g fill="#000000" fill-opacity="1"><g transform="translate(318.238055, 192.458319)"><g/></g></g><g fill="#000000" fill-opacity="1"><g transform="translate(327.406173, 192.458319)"><g/></g></g><g fill="#000000" fill-opacity="1"><g transform="translate(336.574292, 192.458319)"><g/></g></g><g fill="#000000" fill-opacity="1"><g transform="translate(345.74241, 192.458319)"><g/></g></g><g fill="#000000" fill-opacity="1"><g transform="translate(354.910528, 192.458319)"><g/></g></g><g clip-path="url(#4ee6878426)"><path fill="#000000" d="M 79.164062 193.207031 L 78.003906 180.472656 L 90.761719 180.472656 L 89.597656 193.207031 L 84.375 194.621094 Z M 79.164062 193.207031 " fill-opacity="1" fill-rule="nonzero"/></g><path fill="#141414" d="M 88.605469 192.394531 L 89.597656 181.515625 L 84.382812 181.515625 L 84.382812 193.539062 Z M 88.605469 192.394531 " fill-opacity="1" fill-rule="nonzero"/><path fill="#ebebeb" d="M 84.375 183.078125 L 80.378906 183.078125 L 80.808594 187.800781 L 84.382812 187.800781 L 84.382812 186.238281 L 82.269531 186.238281 L 82.125 184.636719 L 84.382812 184.636719 L 84.382812 183.078125 Z M 84.382812 190.289062 L 84.375 190.289062 L 82.597656 189.820312 L 82.484375 188.574219 L 80.878906 188.574219 L 81.105469 191.027344 L 84.375 191.910156 L 84.382812 191.910156 Z M 84.382812 190.289062 " fill-opacity="1" fill-rule="nonzero"/><path fill="#ffffff" d="M 84.375 187.800781 L 86.34375 187.800781 L 86.164062 189.824219 L 84.382812 190.292969 L 84.382812 191.917969 L 87.65625 191.03125 L 88.09375 186.238281 L 84.382812 186.238281 Z M 88.339844 183.496094 L 88.378906 183.078125 L 84.375 183.078125 L 84.375 184.636719 L 88.234375 184.636719 L 88.265625 184.289062 Z M 88.339844 183.496094 " fill-opacity="1" fill-rule="nonzero"/><g clip-path="url(#5fd41e925d)"><path fill="#000000" d="M 255.875 193.207031 L 254.714844 180.472656 L 267.472656 180.472656 L 266.308594 193.207031 L 261.085938 194.621094 Z M 255.875 193.207031 " fill-opacity="1" fill-rule="nonzero"/></g><path fill="#141414" d="M 265.3125 192.394531 L 266.308594 181.515625 L 261.09375 181.515625 L 261.09375 193.539062 Z M 265.3125 192.394531 " fill-opacity="1" fill-rule="nonzero"/><path fill="#ebebeb" d="M 261.085938 183.078125 L 257.085938 183.078125 L 257.519531 187.800781 L 261.09375 187.800781 L 261.09375 186.238281 L 258.980469 186.238281 L 258.832031 184.636719 L 261.09375 184.636719 L 261.09375 183.078125 Z M 261.09375 190.289062 L 261.085938 190.289062 L 259.308594 189.820312 L 259.195312 188.574219 L 257.589844 188.574219 L 257.8125 191.027344 L 261.085938 191.910156 L 261.09375 191.910156 Z M 261.09375 190.289062 " fill-opacity="1" fill-rule="nonzero"/><path fill="#ffffff" d="M 261.085938 187.800781 L 263.054688 187.800781 L 262.871094 189.824219 L 261.089844 190.292969 L 261.089844 191.917969 L 264.367188 191.03125 L 264.804688 186.238281 L 261.09375 186.238281 Z M 265.050781 183.496094 L 265.085938 183.078125 L 261.085938 183.078125 L 261.085938 184.636719 L 264.945312 184.636719 L 264.976562 184.289062 Z M 265.050781 183.496094 " fill-opacity="1" fill-rule="nonzero"/><g fill="#000000" fill-opacity="1"><g transform="translate(158.243169, 243.349388)"><g><path d="M 4.226562 -5.359375 L 4.226562 -6.0625 L 0.953125 -6.0625 L 0.953125 0 L 1.738281 0 L 1.738281 -2.683594 L 3.910156 -2.683594 L 3.910156 -3.378906 L 1.738281 -3.378906 L 1.738281 -5.359375 Z M 4.226562 -5.359375 "/></g></g></g><g fill="#000000" fill-opacity="1"><g transform="translate(165.782677, 243.349388)"><g><path d="M 4.84375 0 L 5.648438 0 L 3.414062 -6.0625 L 2.492188 -6.0625 L 0.257812 0 L 1.0625 0 L 1.582031 -1.449219 L 4.324219 -1.449219 Z M 1.824219 -2.132812 L 2.953125 -5.289062 L 4.082031 -2.132812 Z M 1.824219 -2.132812 "/></g></g></g><g fill="#000000" fill-opacity="1"><g transform="translate(174.65259, 243.349388)"><g><path d="M 2.191406 0 L 2.964844 0 L 2.964844 -2.894531 L 4.960938 -6.0625 L 4.085938 -6.0625 L 2.578125 -3.585938 L 1.070312 -6.0625 L 0.195312 -6.0625 L 2.191406 -2.882812 Z M 2.191406 0 "/></g></g></g><g fill="#000000" fill-opacity="1"><g transform="translate(182.769039, 243.349388)"><g><path d="M 4.347656 -5.699219 C 3.996094 -5.945312 3.496094 -6.0625 2.816406 -6.0625 L 0.953125 -6.0625 L 0.953125 0 L 1.722656 0 L 1.722656 -2.355469 L 2.816406 -2.355469 C 3.519531 -2.355469 4.03125 -2.5 4.382812 -2.808594 C 4.796875 -3.125 5 -3.648438 5 -4.300781 C 5 -4.957031 4.785156 -5.421875 4.347656 -5.699219 Z M 3.902344 -3.359375 C 3.65625 -3.109375 3.257812 -3.027344 2.714844 -3.027344 L 1.722656 -3.027344 L 1.722656 -5.394531 L 2.714844 -5.394531 C 3.246094 -5.394531 3.628906 -5.339844 3.886719 -5.128906 C 4.089844 -4.960938 4.210938 -4.683594 4.210938 -4.269531 C 4.210938 -3.839844 4.097656 -3.550781 3.902344 -3.359375 Z M 3.902344 -3.359375 "/></g></g></g><g fill="#000000" fill-opacity="1"><g transform="translate(191.143816, 243.349388)"><g><path d="M 5.132812 0 L 3.621094 -2.4375 C 3.929688 -2.511719 4.179688 -2.636719 4.382812 -2.808594 C 4.796875 -3.125 5 -3.648438 5 -4.300781 C 5 -4.957031 4.785156 -5.421875 4.347656 -5.699219 C 3.996094 -5.945312 3.496094 -6.0625 2.816406 -6.0625 L 0.953125 -6.0625 L 0.953125 0 L 1.722656 0 L 1.722656 -2.355469 L 2.867188 -2.355469 L 4.230469 0 Z M 1.722656 -5.394531 L 2.714844 -5.394531 C 3.246094 -5.394531 3.628906 -5.339844 3.886719 -5.128906 C 4.089844 -4.960938 4.210938 -4.683594 4.210938 -4.269531 C 4.210938 -3.839844 4.097656 -3.550781 3.902344 -3.359375 C 3.65625 -3.109375 3.257812 -3.027344 2.714844 -3.027344 L 1.722656 -3.027344 Z M 1.722656 -5.394531 "/></g></g></g><g fill="#000000" fill-opacity="1"><g transform="translate(199.716646, 243.349388)"><g><path d="M 3.546875 0.0820312 C 5.238281 0.0820312 6.558594 -1.09375 6.558594 -3.035156 C 6.558594 -4.96875 5.238281 -6.144531 3.546875 -6.144531 C 1.839844 -6.144531 0.53125 -4.96875 0.53125 -3.035156 C 0.53125 -1.09375 1.839844 0.0820312 3.546875 0.0820312 Z M 3.546875 -0.644531 C 2.289062 -0.644531 1.296875 -1.507812 1.296875 -3.035156 C 1.296875 -4.546875 2.289062 -5.40625 3.546875 -5.40625 C 4.796875 -5.40625 5.785156 -4.546875 5.785156 -3.035156 C 5.785156 -1.507812 4.796875 -0.644531 3.546875 -0.644531 Z M 3.546875 -0.644531 "/></g></g></g><g fill="#000000" fill-opacity="1"><g transform="translate(209.766269, 243.349388)"><g><path d="M 3.527344 0.0820312 C 4.5625 0.0820312 5.332031 -0.363281 5.730469 -1.136719 L 5.730469 0 L 6.363281 0 L 6.363281 -3.089844 L 3.566406 -3.089844 L 3.566406 -2.4375 L 5.609375 -2.4375 C 5.476562 -1.238281 4.648438 -0.621094 3.570312 -0.621094 C 2.269531 -0.621094 1.304688 -1.492188 1.304688 -3.027344 C 1.304688 -4.578125 2.285156 -5.433594 3.546875 -5.433594 C 4.339844 -5.433594 5.046875 -5.09375 5.449219 -4.375 L 6.121094 -4.730469 C 5.597656 -5.660156 4.644531 -6.144531 3.546875 -6.144531 C 1.839844 -6.144531 0.53125 -4.972656 0.53125 -3.015625 C 0.53125 -1.066406 1.835938 0.0820312 3.527344 0.0820312 Z M 3.527344 0.0820312 "/></g></g></g></svg>