<svg xmlns="http://www.w3.org/2000/svg" xmlns:xlink="http://www.w3.org/1999/xlink" width="500" zoomAndPan="magnify" viewBox="0 0 375 374.999991" height="500" preserveAspectRatio="xMidYMid meet" version="1.0"><defs><g/><clipPath id="073cfa1cd9"><path d="M 122.246094 181.6875 L 133.496094 181.6875 L 133.496094 192.9375 L 122.246094 192.9375 Z M 122.246094 181.6875 " clip-rule="nonzero"/></clipPath><clipPath id="42c30ded5c"><path d="M 122.246094 181.6875 L 128 181.6875 L 128 192.9375 L 122.246094 192.9375 Z M 122.246094 181.6875 " clip-rule="nonzero"/></clipPath><clipPath id="4f2014972b"><path d="M 265.367188 181.6875 L 276.617188 181.6875 L 276.617188 192.9375 L 265.367188 192.9375 Z M 265.367188 181.6875 " clip-rule="nonzero"/></clipPath><clipPath id="bd60c99f2e"><path d="M 265.367188 181.6875 L 272 181.6875 L 272 192.9375 L 265.367188 192.9375 Z M 265.367188 181.6875 " clip-rule="nonzero"/></clipPath></defs><rect x="-37.5" width="450" fill="#ffffff" y="-37.499999" height="449.999989" fill-opacity="1"/><rect x="-37.5" width="450" fill="#ffffff" y="-37.499999" height="449.999989" fill-opacity="1"/><rect x="-37.5" width="450" fill="#ffffff" y="-37.499999" height="449.999989" fill-opacity="1"/><g fill="#000000" fill-opacity="1"><g transform="translate(119.352465, 234.300924)"><g><path d="M 39.046875 -84.4375 L 56.046875 -84.4375 L 56.046875 -31.046875 C 56.046875 -22.597656 55.023438 -16.25 52.984375 -12 C 50.953125 -7.757812 47.878906 -4.457031 43.765625 -2.09375 C 39.660156 0.257812 34.421875 1.4375 28.046875 1.4375 C 19.710938 1.4375 13.304688 -0.882812 8.828125 -5.53125 C 4.359375 -10.175781 2.085938 -17.03125 2.015625 -26.09375 L 18.03125 -27.9375 C 18.300781 -22.289062 19.359375 -18.398438 21.203125 -16.265625 C 23.046875 -14.140625 25.539062 -13.078125 28.6875 -13.078125 C 32.445312 -13.078125 35.113281 -14.179688 36.6875 -16.390625 C 38.257812 -18.597656 39.046875 -23.082031 39.046875 -29.84375 Z M 39.046875 -84.4375 "/></g></g></g><g fill="#000000" fill-opacity="1"><g transform="translate(173.872344, 234.300924)"><g><path d="M 4.265625 -27.46875 L 20.859375 -29.140625 C 21.816406 -23.535156 23.832031 -19.414062 26.90625 -16.78125 C 29.976562 -14.15625 34.101562 -12.84375 39.28125 -12.84375 C 44.769531 -12.84375 48.914062 -14.003906 51.71875 -16.328125 C 54.53125 -18.648438 55.9375 -21.382812 55.9375 -24.53125 C 55.9375 -26.488281 55.335938 -28.175781 54.140625 -29.59375 C 52.953125 -31.019531 50.921875 -32.253906 48.046875 -33.296875 C 45.960938 -33.984375 41.390625 -35.191406 34.328125 -36.921875 C 25.191406 -39.191406 18.78125 -41.976562 15.09375 -45.28125 C 9.90625 -49.925781 7.3125 -55.585938 7.3125 -62.265625 C 7.3125 -66.609375 8.53125 -70.648438 10.96875 -74.390625 C 13.40625 -78.140625 16.925781 -80.992188 21.53125 -82.953125 C 26.144531 -84.910156 31.675781 -85.890625 38.125 -85.890625 C 48.726562 -85.890625 56.707031 -83.5625 62.0625 -78.90625 C 67.414062 -74.257812 70.25 -68.0625 70.5625 -60.3125 L 53.453125 -59.5625 C 52.722656 -63.894531 51.15625 -67.003906 48.75 -68.890625 C 46.351562 -70.773438 42.753906 -71.71875 37.953125 -71.71875 C 33.734375 -71.71875 30.285156 -70.992188 27.609375 -69.546875 C 24.941406 -68.109375 23.609375 -66.085938 23.609375 -63.484375 C 23.609375 -61.523438 24.472656 -59.832031 26.203125 -58.40625 C 28.316406 -56.601562 33.519531 -54.710938 41.8125 -52.734375 C 50.113281 -50.753906 56.25 -48.726562 60.21875 -46.65625 C 64.195312 -44.582031 67.304688 -41.710938 69.546875 -38.046875 C 71.796875 -34.378906 72.921875 -29.875 72.921875 -24.53125 C 72.921875 -19.738281 71.578125 -15.238281 68.890625 -11.03125 C 66.203125 -6.820312 62.398438 -3.671875 57.484375 -1.578125 C 52.566406 0.515625 46.460938 1.5625 39.171875 1.5625 C 18.085938 1.5625 6.453125 -8.113281 4.265625 -27.46875 Z M 4.265625 -27.46875 "/></g></g></g><path fill="#ffffff" d="M 107.996094 176.660156 L 305.265625 176.660156 L 305.265625 197.5 L 107.996094 197.5 L 107.996094 176.660156 " fill-opacity="1" fill-rule="nonzero"/><g fill="#000000" fill-opacity="1"><g transform="translate(108.833912, 192.609331)"><g/></g></g><g fill="#000000" fill-opacity="1"><g transform="translate(112.277873, 192.609331)"><g/></g></g><g fill="#000000" fill-opacity="1"><g transform="translate(115.721835, 192.609331)"><g/></g></g><g fill="#000000" fill-opacity="1"><g transform="translate(119.165797, 192.609331)"><g/></g></g><g fill="#000000" fill-opacity="1"><g transform="translate(122.609758, 192.609331)"><g/></g></g><g fill="#000000" fill-opacity="1"><g transform="translate(126.053719, 192.609331)"><g/></g></g><g fill="#000000" fill-opacity="1"><g transform="translate(129.49768, 192.609331)"><g/></g></g><g fill="#000000" fill-opacity="1"><g transform="translate(132.941641, 192.609331)"><g/></g></g><g fill="#000000" fill-opacity="1"><g transform="translate(136.379174, 192.609331)"><g><path d="M 6.636719 -9.050781 L 6.636719 -3.539062 C 6.636719 -2.03125 5.175781 -0.90625 3.636719 -0.90625 C 2.300781 -0.90625 1.144531 -1.746094 1.046875 -3.191406 C 0.984375 -4.046875 -0.175781 -3.90625 -0.128906 -3.175781 C -0.015625 -1.269531 1.621094 0.160156 3.636719 0.160156 C 5.730469 0.160156 7.746094 -1.398438 7.730469 -3.539062 L 7.730469 -9.574219 C 7.699219 -9.859375 7.445312 -10.097656 7.160156 -10.097656 L 3.589844 -10.097656 C 2.792969 -10.097656 2.792969 -9.050781 3.589844 -9.050781 Z M 6.636719 -9.050781 "/></g></g></g><g fill="#000000" fill-opacity="1"><g transform="translate(144.680305, 192.609331)"><g><path d="M 4.699219 -8.191406 C 2.445312 -8.191406 0.570312 -6.777344 0.570312 -4.0625 C 0.570312 -1.429688 2.332031 0.160156 4.636719 0.160156 C 5.574219 0.160156 6.746094 -0.332031 7.207031 -1.253906 L 7.207031 -0.570312 C 7.207031 -0.222656 7.414062 0 7.78125 0 C 8.128906 0 8.367188 -0.222656 8.367188 -0.570312 L 8.367188 -7.460938 C 8.367188 -7.796875 8.128906 -8.035156 7.78125 -8.035156 C 7.414062 -8.035156 7.207031 -7.796875 7.207031 -7.460938 L 7.207031 -6.9375 C 6.636719 -7.875 5.605469 -8.191406 4.699219 -8.191406 Z M 4.652344 -0.9375 C 3.621094 -0.9375 1.730469 -1.746094 1.730469 -4.0625 C 1.730469 -5.683594 2.761719 -7.128906 4.683594 -7.097656 C 6.113281 -7.03125 7.207031 -6.207031 7.207031 -4.636719 L 7.207031 -3.382812 C 7.207031 -1.839844 6.050781 -0.984375 4.652344 -0.9375 Z M 4.652344 -0.9375 "/></g></g></g><g fill="#000000" fill-opacity="1"><g transform="translate(153.568736, 192.609331)"><g><path d="M 0.160156 -7.289062 L 3.746094 -0.191406 C 3.890625 0.046875 4.082031 0.160156 4.253906 0.160156 C 4.476562 0.160156 4.683594 0.015625 4.792969 -0.207031 L 8.382812 -7.335938 C 8.558594 -7.746094 8.191406 -8.035156 7.84375 -8.035156 C 7.636719 -8.035156 7.429688 -7.9375 7.351562 -7.730469 L 4.285156 -1.667969 L 1.253906 -7.714844 C 1.160156 -7.9375 0.953125 -8.035156 0.761719 -8.035156 C 0.382812 -8.035156 0 -7.714844 0.160156 -7.289062 Z M 0.160156 -7.289062 "/></g></g></g><g fill="#000000" fill-opacity="1"><g transform="translate(161.488909, 192.609331)"><g><path d="M 4.699219 -8.191406 C 2.445312 -8.191406 0.570312 -6.777344 0.570312 -4.0625 C 0.570312 -1.429688 2.332031 0.160156 4.636719 0.160156 C 5.574219 0.160156 6.746094 -0.332031 7.207031 -1.253906 L 7.207031 -0.570312 C 7.207031 -0.222656 7.414062 0 7.78125 0 C 8.128906 0 8.367188 -0.222656 8.367188 -0.570312 L 8.367188 -7.460938 C 8.367188 -7.796875 8.128906 -8.035156 7.78125 -8.035156 C 7.414062 -8.035156 7.207031 -7.796875 7.207031 -7.460938 L 7.207031 -6.9375 C 6.636719 -7.875 5.605469 -8.191406 4.699219 -8.191406 Z M 4.652344 -0.9375 C 3.621094 -0.9375 1.730469 -1.746094 1.730469 -4.0625 C 1.730469 -5.683594 2.761719 -7.128906 4.683594 -7.097656 C 6.113281 -7.03125 7.207031 -6.207031 7.207031 -4.636719 L 7.207031 -3.382812 C 7.207031 -1.839844 6.050781 -0.984375 4.652344 -0.9375 Z M 4.652344 -0.9375 "/></g></g></g><g fill="#000000" fill-opacity="1"><g transform="translate(170.377342, 192.609331)"><g><path d="M 0.445312 -1.792969 C 0.761719 -0.207031 2.792969 0.160156 4.113281 0.160156 C 5.429688 0.160156 7.714844 -0.363281 7.714844 -2.367188 C 7.714844 -4.351562 5.859375 -4.507812 4.113281 -4.667969 C 2.84375 -4.761719 1.667969 -4.746094 1.667969 -5.761719 C 1.667969 -6.746094 3.046875 -7.144531 3.96875 -7.144531 C 4.683594 -7.144531 6.015625 -7.082031 6.367188 -6.160156 C 6.574219 -5.558594 7.667969 -5.859375 7.445312 -6.574219 C 6.890625 -8 5.191406 -8.191406 3.96875 -8.191406 C 2.445312 -8.191406 0.507812 -7.476562 0.507812 -5.777344 C 0.507812 -3.828125 2.351562 -3.683594 4.0625 -3.523438 C 5.351562 -3.429688 6.558594 -3.382812 6.558594 -2.367188 C 6.558594 -1.269531 4.890625 -0.875 4.113281 -0.875 C 2.953125 -0.875 1.714844 -1.285156 1.554688 -2 C 1.414062 -2.792969 0.253906 -2.460938 0.445312 -1.792969 Z M 0.445312 -1.792969 "/></g></g></g><g fill="#000000" fill-opacity="1"><g transform="translate(177.980055, 192.609331)"><g><path d="M 6.796875 -6.207031 C 7.222656 -5.699219 8.066406 -6.351562 7.621094 -6.859375 C 6.777344 -7.8125 5.875 -8.191406 4.746094 -8.191406 C 1.570312 -8.191406 0.621094 -5.636719 0.621094 -4.03125 C 0.621094 -1.683594 2.269531 0.160156 4.667969 0.160156 C 5.828125 0.160156 7 -0.332031 7.761719 -1.269531 C 8.289062 -1.875 7.351562 -2.476562 6.96875 -1.953125 C 6.414062 -1.207031 5.507812 -0.890625 4.683594 -0.890625 C 2.921875 -0.890625 1.777344 -2.300781 1.777344 -4 C 1.777344 -5.777344 2.9375 -7.160156 4.636719 -7.160156 C 5.414062 -7.160156 6.207031 -6.890625 6.796875 -6.207031 Z M 6.796875 -6.207031 "/></g></g></g><g fill="#000000" fill-opacity="1"><g transform="translate(185.630389, 192.609331)"><g><path d="M 2.144531 -6.84375 L 2.144531 -7.476562 C 2.144531 -7.84375 1.875 -8.035156 1.601562 -8.035156 C 1.316406 -8.035156 1.015625 -7.828125 1.015625 -7.476562 L 1.015625 -0.554688 C 1.015625 -0.222656 1.253906 0 1.601562 0 C 1.90625 0 2.175781 -0.222656 2.175781 -0.554688 L 2.175781 -4.191406 C 2.175781 -5.792969 2.875 -7.097656 4.507812 -7.097656 C 4.875 -7.097656 5.113281 -7.289062 5.113281 -7.636719 C 5.113281 -8 4.875 -8.191406 4.507812 -8.191406 C 3.605469 -8.191406 2.652344 -7.90625 2.144531 -6.84375 Z M 2.144531 -6.84375 "/></g></g></g><g fill="#000000" fill-opacity="1"><g transform="translate(190.09023, 192.609331)"><g><path d="M 2.113281 -9.96875 L 2.113281 -10.050781 C 2.113281 -10.414062 1.808594 -10.605469 1.523438 -10.605469 C 1.222656 -10.605469 0.921875 -10.414062 0.921875 -10.050781 L 0.921875 -9.96875 C 0.921875 -9.605469 1.222656 -9.429688 1.507812 -9.429688 C 1.808594 -9.429688 2.113281 -9.605469 2.113281 -9.96875 Z M 0.9375 -7.507812 L 0.9375 -0.523438 C 0.9375 -0.175781 1.222656 0 1.523438 0 C 1.808594 0 2.09375 -0.175781 2.09375 -0.523438 L 2.09375 -7.523438 C 2.09375 -7.859375 1.808594 -8.035156 1.523438 -8.035156 C 1.238281 -8.035156 0.9375 -7.859375 0.9375 -7.507812 Z M 0.9375 -7.507812 "/></g></g></g><g fill="#000000" fill-opacity="1"><g transform="translate(192.407207, 192.609331)"><g><path d="M 8.859375 -3.777344 C 8.921875 -6.589844 7 -8.191406 4.792969 -8.191406 C 3.84375 -8.191406 2.730469 -7.683594 2.191406 -6.796875 L 2.191406 -7.476562 C 2.191406 -7.828125 2.015625 -8.035156 1.652344 -8.035156 C 1.285156 -8.035156 1.0625 -7.828125 1.0625 -7.476562 L 1.0625 2.316406 C 1.0625 3.046875 2.222656 3.046875 2.222656 2.316406 L 2.222656 -1.09375 C 2.699219 -0.253906 3.730469 0.160156 4.792969 0.160156 C 7.175781 0.160156 8.796875 -1.523438 8.859375 -3.777344 Z M 4.890625 -7.097656 C 6.492188 -7.097656 7.730469 -5.636719 7.699219 -3.792969 C 7.636719 -2.222656 6.605469 -0.921875 4.746094 -0.921875 C 3.300781 -0.984375 2.222656 -1.96875 2.222656 -3.367188 L 2.222656 -4.621094 C 2.222656 -6.175781 3.445312 -7.097656 4.890625 -7.097656 Z M 4.890625 -7.097656 "/></g></g></g><g fill="#000000" fill-opacity="1"><g transform="translate(201.359137, 192.609331)"><g><path d="M 4.554688 -8.035156 L 2.824219 -8.035156 L 2.824219 -9.921875 C 2.824219 -10.667969 1.683594 -10.683594 1.683594 -9.921875 L 1.683594 -8.035156 L 0.636719 -8.035156 C -0.0625 -8.035156 -0.109375 -7.066406 0.636719 -7.066406 L 1.683594 -7.066406 L 1.683594 -2.746094 C 1.683594 -1.238281 2.144531 0.160156 4.046875 0.160156 C 4.476562 0.160156 4.875 0.109375 5.269531 -0.109375 C 5.984375 -0.507812 5.460938 -1.445312 4.792969 -1.0625 C 4.636719 -0.96875 4.285156 -0.890625 4.046875 -0.890625 C 2.96875 -0.890625 2.824219 -1.839844 2.824219 -2.746094 L 2.824219 -7.066406 L 4.554688 -7.066406 C 5.269531 -7.066406 5.269531 -8.035156 4.554688 -8.035156 Z M 4.554688 -8.035156 "/></g></g></g><g fill="#000000" fill-opacity="1"><g transform="translate(206.580893, 192.609331)"><g/></g></g><g fill="#000000" fill-opacity="1"><g transform="translate(210.024855, 192.609331)"><g><path d="M 2.09375 -0.539062 L 2.09375 -10.066406 C 2.09375 -10.367188 1.839844 -10.605469 1.523438 -10.605469 C 1.175781 -10.605469 0.9375 -10.367188 0.9375 -10.066406 L 0.9375 -0.539062 C 0.9375 -0.238281 1.175781 0 1.523438 0 C 1.839844 0 2.09375 -0.238281 2.09375 -0.539062 Z M 2.09375 -0.539062 "/></g></g></g><g fill="#000000" fill-opacity="1"><g transform="translate(212.341836, 192.609331)"><g><path d="M 8.859375 -4.0625 C 8.8125 -6.9375 6.828125 -8.191406 4.683594 -8.191406 C 2.652344 -8.191406 0.636719 -6.730469 0.636719 -4.046875 C 0.636719 -1.652344 2.253906 0.160156 4.761719 0.160156 C 5.792969 0.175781 6.859375 -0.109375 7.589844 -0.792969 C 8.207031 -1.429688 7.382812 -2.078125 6.828125 -1.570312 C 6.207031 -1.09375 5.445312 -0.90625 4.714844 -0.90625 C 3.128906 -0.90625 2.015625 -2.03125 1.808594 -3.335938 L 8.082031 -3.335938 C 8.730469 -3.335938 8.859375 -3.714844 8.859375 -4.0625 Z M 1.761719 -4.300781 C 1.90625 -6.207031 3.269531 -7.113281 4.761719 -7.113281 C 6.097656 -7.113281 7.589844 -6.207031 7.746094 -4.300781 Z M 1.761719 -4.300781 "/></g></g></g><g fill="#000000" fill-opacity="1"><g transform="translate(221.277888, 192.609331)"><g><path d="M 0.445312 -1.792969 C 0.761719 -0.207031 2.792969 0.160156 4.113281 0.160156 C 5.429688 0.160156 7.714844 -0.363281 7.714844 -2.367188 C 7.714844 -4.351562 5.859375 -4.507812 4.113281 -4.667969 C 2.84375 -4.761719 1.667969 -4.746094 1.667969 -5.761719 C 1.667969 -6.746094 3.046875 -7.144531 3.96875 -7.144531 C 4.683594 -7.144531 6.015625 -7.082031 6.367188 -6.160156 C 6.574219 -5.558594 7.667969 -5.859375 7.445312 -6.574219 C 6.890625 -8 5.191406 -8.191406 3.96875 -8.191406 C 2.445312 -8.191406 0.507812 -7.476562 0.507812 -5.777344 C 0.507812 -3.828125 2.351562 -3.683594 4.0625 -3.523438 C 5.351562 -3.429688 6.558594 -3.382812 6.558594 -2.367188 C 6.558594 -1.269531 4.890625 -0.875 4.113281 -0.875 C 2.953125 -0.875 1.714844 -1.285156 1.554688 -2 C 1.414062 -2.792969 0.253906 -2.460938 0.445312 -1.792969 Z M 0.445312 -1.792969 "/></g></g></g><g fill="#000000" fill-opacity="1"><g transform="translate(228.880602, 192.609331)"><g><path d="M 0.445312 -1.792969 C 0.761719 -0.207031 2.792969 0.160156 4.113281 0.160156 C 5.429688 0.160156 7.714844 -0.363281 7.714844 -2.367188 C 7.714844 -4.351562 5.859375 -4.507812 4.113281 -4.667969 C 2.84375 -4.761719 1.667969 -4.746094 1.667969 -5.761719 C 1.667969 -6.746094 3.046875 -7.144531 3.96875 -7.144531 C 4.683594 -7.144531 6.015625 -7.082031 6.367188 -6.160156 C 6.574219 -5.558594 7.667969 -5.859375 7.445312 -6.574219 C 6.890625 -8 5.191406 -8.191406 3.96875 -8.191406 C 2.445312 -8.191406 0.507812 -7.476562 0.507812 -5.777344 C 0.507812 -3.828125 2.351562 -3.683594 4.0625 -3.523438 C 5.351562 -3.429688 6.558594 -3.382812 6.558594 -2.367188 C 6.558594 -1.269531 4.890625 -0.875 4.113281 -0.875 C 2.953125 -0.875 1.714844 -1.285156 1.554688 -2 C 1.414062 -2.792969 0.253906 -2.460938 0.445312 -1.792969 Z M 0.445312 -1.792969 "/></g></g></g><g fill="#000000" fill-opacity="1"><g transform="translate(236.483316, 192.609331)"><g><path d="M 4.714844 0.160156 C 7.113281 0.160156 8.859375 -1.636719 8.859375 -4.046875 C 8.859375 -6.320312 7.128906 -8.191406 4.714844 -8.191406 C 2.332031 -8.191406 0.570312 -6.429688 0.570312 -4.128906 C 0.570312 -1.761719 2.191406 0.160156 4.714844 0.160156 Z M 4.699219 -7.113281 C 6.191406 -7.113281 7.699219 -6.113281 7.699219 -3.96875 C 7.699219 -2.382812 6.492188 -0.9375 4.714844 -0.9375 C 2.9375 -0.9375 1.746094 -2.300781 1.746094 -4 C 1.746094 -6.066406 3.175781 -7.113281 4.699219 -7.113281 Z M 4.699219 -7.113281 "/></g></g></g><g fill="#000000" fill-opacity="1"><g transform="translate(245.260645, 192.609331)"><g><path d="M 7.683594 -4.636719 L 7.683594 -0.554688 C 7.683594 -0.207031 7.921875 0 8.273438 0 C 8.636719 0 8.84375 -0.207031 8.84375 -0.554688 L 8.84375 -4.636719 C 8.84375 -6.921875 7.082031 -8.191406 5.238281 -8.191406 C 4 -8.191406 2.777344 -7.699219 2.207031 -6.542969 L 2.207031 -7.460938 C 2.207031 -7.84375 1.921875 -8.035156 1.636719 -8.035156 C 1.347656 -8.035156 1.0625 -7.84375 1.0625 -7.476562 L 1.0625 -0.554688 C 1.0625 -0.207031 1.300781 0 1.667969 0 C 2.03125 0 2.238281 -0.207031 2.238281 -0.554688 L 2.238281 -4.113281 C 2.238281 -5.84375 3.683594 -7.113281 5.222656 -7.113281 C 6.507812 -7.113281 7.683594 -6.097656 7.683594 -4.636719 Z M 7.683594 -4.636719 "/></g></g></g><g fill="#000000" fill-opacity="1"><g transform="translate(254.60939, 192.609331)"><g><path d="M 0.445312 -1.792969 C 0.761719 -0.207031 2.792969 0.160156 4.113281 0.160156 C 5.429688 0.160156 7.714844 -0.363281 7.714844 -2.367188 C 7.714844 -4.351562 5.859375 -4.507812 4.113281 -4.667969 C 2.84375 -4.761719 1.667969 -4.746094 1.667969 -5.761719 C 1.667969 -6.746094 3.046875 -7.144531 3.96875 -7.144531 C 4.683594 -7.144531 6.015625 -7.082031 6.367188 -6.160156 C 6.574219 -5.558594 7.667969 -5.859375 7.445312 -6.574219 C 6.890625 -8 5.191406 -8.191406 3.96875 -8.191406 C 2.445312 -8.191406 0.507812 -7.476562 0.507812 -5.777344 C 0.507812 -3.828125 2.351562 -3.683594 4.0625 -3.523438 C 5.351562 -3.429688 6.558594 -3.382812 6.558594 -2.367188 C 6.558594 -1.269531 4.890625 -0.875 4.113281 -0.875 C 2.953125 -0.875 1.714844 -1.285156 1.554688 -2 C 1.414062 -2.792969 0.253906 -2.460938 0.445312 -1.792969 Z M 0.445312 -1.792969 "/></g></g></g><g fill="#000000" fill-opacity="1"><g transform="translate(262.207313, 192.609331)"><g/></g></g><g fill="#000000" fill-opacity="1"><g transform="translate(265.651275, 192.609331)"><g/></g></g><g fill="#000000" fill-opacity="1"><g transform="translate(269.095236, 192.609331)"><g/></g></g><g fill="#000000" fill-opacity="1"><g transform="translate(272.539198, 192.609331)"><g/></g></g><g fill="#000000" fill-opacity="1"><g transform="translate(275.983159, 192.609331)"><g/></g></g><g fill="#000000" fill-opacity="1"><g transform="translate(279.42712, 192.609331)"><g/></g></g><g fill="#000000" fill-opacity="1"><g transform="translate(282.871081, 192.609331)"><g/></g></g><g fill="#000000" fill-opacity="1"><g transform="translate(286.315042, 192.609331)"><g/></g></g><g fill="#000000" fill-opacity="1"><g transform="translate(289.759005, 192.609331)"><g/></g></g><g fill="#000000" fill-opacity="1"><g transform="translate(293.202967, 192.609331)"><g/></g></g><g fill="#000000" fill-opacity="1"><g transform="translate(296.64693, 192.609331)"><g/></g></g><g fill="#000000" fill-opacity="1"><g transform="translate(300.090893, 192.609331)"><g/></g></g><g clip-path="url(#073cfa1cd9)"><path fill="#141414" d="M 122.664062 181.660156 C 122.550781 181.660156 122.445312 181.710938 122.371094 181.792969 C 122.292969 181.878906 122.261719 181.992188 122.273438 182.101562 L 123.320312 190.476562 C 123.335938 190.605469 123.417969 190.71875 123.535156 190.777344 L 127.71875 192.871094 C 127.832031 192.925781 127.960938 192.925781 128.070312 192.871094 L 132.257812 190.777344 C 132.375 190.71875 132.457031 190.605469 132.472656 190.476562 L 133.519531 182.101562 C 133.53125 181.992188 133.496094 181.878906 133.421875 181.792969 C 133.347656 181.710938 133.242188 181.660156 133.128906 181.660156 Z M 122.664062 181.660156 " fill-opacity="1" fill-rule="nonzero"/></g><g clip-path="url(#42c30ded5c)"><path fill="#000000" d="M 127.894531 181.660156 L 127.894531 192.910156 C 127.835938 192.910156 127.777344 192.898438 127.71875 192.871094 L 123.535156 190.777344 C 123.417969 190.71875 123.335938 190.605469 123.320312 190.476562 L 122.273438 182.101562 C 122.261719 181.992188 122.292969 181.878906 122.371094 181.792969 C 122.445312 181.710938 122.550781 181.660156 122.664062 181.660156 Z M 127.894531 181.660156 " fill-opacity="1" fill-rule="evenodd"/></g><path fill="#cfd8dc" d="M 127.109375 183.230469 C 127.328125 183.230469 127.503906 183.40625 127.503906 183.625 L 127.503906 190.425781 C 127.503906 190.566406 127.429688 190.695312 127.308594 190.765625 C 127.1875 190.835938 127.039062 190.835938 126.917969 190.765625 L 125.085938 189.71875 C 124.898438 189.613281 124.832031 189.371094 124.9375 189.183594 C 125.046875 188.996094 125.285156 188.929688 125.472656 189.039062 L 126.71875 189.75 L 126.71875 183.625 C 126.71875 183.40625 126.894531 183.230469 127.109375 183.230469 Z M 127.109375 183.230469 " fill-opacity="1" fill-rule="evenodd"/><path fill="#eceff1" d="M 128.289062 183.625 C 128.289062 183.40625 128.464844 183.230469 128.679688 183.230469 L 131.296875 183.230469 C 131.515625 183.230469 131.691406 183.40625 131.691406 183.625 C 131.691406 183.839844 131.515625 184.015625 131.296875 184.015625 L 129.074219 184.015625 L 129.074219 186.535156 L 130.949219 186.117188 C 131.074219 186.089844 131.199219 186.125 131.292969 186.207031 C 131.390625 186.289062 131.4375 186.414062 131.425781 186.539062 L 131.164062 189.414062 C 131.152344 189.550781 131.070312 189.667969 130.949219 189.730469 L 128.855469 190.777344 C 128.664062 190.875 128.425781 190.796875 128.328125 190.601562 C 128.234375 190.40625 128.3125 190.171875 128.503906 190.074219 L 130.402344 189.125 L 130.597656 187 L 128.765625 187.40625 C 128.648438 187.433594 128.527344 187.40625 128.433594 187.332031 C 128.34375 187.257812 128.289062 187.144531 128.289062 187.023438 Z M 128.289062 183.625 " fill-opacity="1" fill-rule="evenodd"/><g fill="#000000" fill-opacity="1"><g transform="translate(155.804495, 245.050422)"><g><path d="M 4.355469 -5.523438 L 4.355469 -6.246094 L 0.980469 -6.246094 L 0.980469 0 L 1.792969 0 L 1.792969 -2.765625 L 4.027344 -2.765625 L 4.027344 -3.484375 L 1.792969 -3.484375 L 1.792969 -5.523438 Z M 4.355469 -5.523438 "/></g></g></g><g fill="#000000" fill-opacity="1"><g transform="translate(163.573636, 245.050422)"><g><path d="M 4.992188 0 L 5.820312 0 L 3.519531 -6.246094 L 2.570312 -6.246094 L 0.265625 0 L 1.097656 0 L 1.628906 -1.496094 L 4.453125 -1.496094 Z M 1.882812 -2.195312 L 3.042969 -5.449219 L 4.207031 -2.195312 Z M 1.882812 -2.195312 "/></g></g></g><g fill="#000000" fill-opacity="1"><g transform="translate(172.713701, 245.050422)"><g><path d="M 2.257812 0 L 3.058594 0 L 3.058594 -2.980469 L 5.109375 -6.246094 L 4.210938 -6.246094 L 2.65625 -3.695312 L 1.105469 -6.246094 L 0.199219 -6.246094 L 2.257812 -2.972656 Z M 2.257812 0 "/></g></g></g><g fill="#000000" fill-opacity="1"><g transform="translate(181.077354, 245.050422)"><g><path d="M 4.480469 -5.875 C 4.117188 -6.128906 3.601562 -6.246094 2.902344 -6.246094 L 0.980469 -6.246094 L 0.980469 0 L 1.773438 0 L 1.773438 -2.425781 L 2.902344 -2.425781 C 3.625 -2.425781 4.152344 -2.578125 4.515625 -2.894531 C 4.941406 -3.222656 5.152344 -3.757812 5.152344 -4.433594 C 5.152344 -5.105469 4.929688 -5.585938 4.480469 -5.875 Z M 4.019531 -3.460938 C 3.765625 -3.203125 3.359375 -3.117188 2.800781 -3.117188 L 1.773438 -3.117188 L 1.773438 -5.558594 L 2.800781 -5.558594 C 3.34375 -5.558594 3.738281 -5.5 4.007812 -5.285156 C 4.214844 -5.109375 4.339844 -4.828125 4.339844 -4.402344 C 4.339844 -3.957031 4.222656 -3.660156 4.019531 -3.460938 Z M 4.019531 -3.460938 "/></g></g></g><g fill="#000000" fill-opacity="1"><g transform="translate(189.707204, 245.050422)"><g><path d="M 5.289062 0 L 3.730469 -2.511719 C 4.050781 -2.585938 4.308594 -2.714844 4.515625 -2.894531 C 4.941406 -3.222656 5.152344 -3.757812 5.152344 -4.433594 C 5.152344 -5.105469 4.929688 -5.585938 4.480469 -5.875 C 4.117188 -6.128906 3.601562 -6.246094 2.902344 -6.246094 L 0.980469 -6.246094 L 0.980469 0 L 1.773438 0 L 1.773438 -2.425781 L 2.953125 -2.425781 L 4.359375 0 Z M 1.773438 -5.558594 L 2.800781 -5.558594 C 3.34375 -5.558594 3.738281 -5.5 4.007812 -5.285156 C 4.214844 -5.109375 4.339844 -4.828125 4.339844 -4.402344 C 4.339844 -3.957031 4.222656 -3.660156 4.019531 -3.460938 C 3.765625 -3.203125 3.359375 -3.117188 2.800781 -3.117188 L 1.773438 -3.117188 Z M 1.773438 -5.558594 "/></g></g></g><g fill="#000000" fill-opacity="1"><g transform="translate(198.541139, 245.050422)"><g><path d="M 3.65625 0.0859375 C 5.398438 0.0859375 6.757812 -1.125 6.757812 -3.128906 C 6.757812 -5.121094 5.398438 -6.332031 3.65625 -6.332031 C 1.894531 -6.332031 0.546875 -5.121094 0.546875 -3.128906 C 0.546875 -1.125 1.894531 0.0859375 3.65625 0.0859375 Z M 3.65625 -0.664062 C 2.359375 -0.664062 1.335938 -1.554688 1.335938 -3.128906 C 1.335938 -4.683594 2.359375 -5.574219 3.65625 -5.574219 C 4.941406 -5.574219 5.960938 -4.683594 5.960938 -3.128906 C 5.960938 -1.554688 4.941406 -0.664062 3.65625 -0.664062 Z M 3.65625 -0.664062 "/></g></g></g><g fill="#000000" fill-opacity="1"><g transform="translate(208.896845, 245.050422)"><g><path d="M 3.632812 0.0859375 C 4.703125 0.0859375 5.492188 -0.371094 5.90625 -1.171875 L 5.90625 0 L 6.558594 0 L 6.558594 -3.183594 L 3.671875 -3.183594 L 3.671875 -2.511719 L 5.78125 -2.511719 C 5.644531 -1.277344 4.792969 -0.640625 3.679688 -0.640625 C 2.339844 -0.640625 1.34375 -1.539062 1.34375 -3.117188 C 1.34375 -4.714844 2.355469 -5.597656 3.65625 -5.597656 C 4.472656 -5.597656 5.199219 -5.25 5.617188 -4.507812 L 6.308594 -4.875 C 5.769531 -5.835938 4.789062 -6.332031 3.65625 -6.332031 C 1.894531 -6.332031 0.546875 -5.125 0.546875 -3.105469 C 0.546875 -1.101562 1.890625 0.0859375 3.632812 0.0859375 Z M 3.632812 0.0859375 "/></g></g></g><g clip-path="url(#4f2014972b)"><path fill="#141414" d="M 265.785156 181.660156 C 265.671875 181.660156 265.5625 181.710938 265.488281 181.792969 C 265.414062 181.878906 265.378906 181.992188 265.394531 182.101562 L 266.441406 190.476562 C 266.457031 190.605469 266.539062 190.71875 266.65625 190.777344 L 270.839844 192.871094 C 270.953125 192.925781 271.082031 192.925781 271.191406 192.871094 L 275.378906 190.777344 C 275.496094 190.71875 275.574219 190.605469 275.59375 190.476562 L 276.636719 182.101562 C 276.652344 181.992188 276.617188 181.878906 276.542969 181.792969 C 276.46875 181.710938 276.363281 181.660156 276.25 181.660156 Z M 265.785156 181.660156 " fill-opacity="1" fill-rule="nonzero"/></g><g clip-path="url(#bd60c99f2e)"><path fill="#000000" d="M 271.015625 181.660156 L 271.015625 192.910156 C 270.957031 192.910156 270.894531 192.898438 270.839844 192.871094 L 266.65625 190.777344 C 266.539062 190.71875 266.457031 190.605469 266.441406 190.476562 L 265.394531 182.101562 C 265.378906 181.992188 265.414062 181.878906 265.488281 181.792969 C 265.5625 181.710938 265.671875 181.660156 265.785156 181.660156 Z M 271.015625 181.660156 " fill-opacity="1" fill-rule="evenodd"/></g><path fill="#cfd8dc" d="M 270.230469 183.230469 C 270.449219 183.230469 270.625 183.40625 270.625 183.625 L 270.625 190.425781 C 270.625 190.566406 270.550781 190.695312 270.429688 190.765625 C 270.308594 190.835938 270.160156 190.835938 270.035156 190.765625 L 268.207031 189.71875 C 268.015625 189.613281 267.953125 189.371094 268.058594 189.183594 C 268.167969 188.996094 268.40625 188.929688 268.59375 189.039062 L 269.839844 189.75 L 269.839844 183.625 C 269.839844 183.40625 270.015625 183.230469 270.230469 183.230469 Z M 270.230469 183.230469 " fill-opacity="1" fill-rule="evenodd"/><path fill="#eceff1" d="M 271.410156 183.625 C 271.410156 183.40625 271.585938 183.230469 271.800781 183.230469 L 274.417969 183.230469 C 274.632812 183.230469 274.808594 183.40625 274.808594 183.625 C 274.808594 183.839844 274.632812 184.015625 274.417969 184.015625 L 272.195312 184.015625 L 272.195312 186.535156 L 274.070312 186.117188 C 274.195312 186.089844 274.320312 186.125 274.414062 186.207031 C 274.507812 186.289062 274.558594 186.414062 274.546875 186.539062 L 274.285156 189.414062 C 274.273438 189.550781 274.191406 189.667969 274.070312 189.730469 L 271.976562 190.777344 C 271.78125 190.875 271.546875 190.796875 271.449219 190.601562 C 271.355469 190.40625 271.433594 190.171875 271.625 190.074219 L 273.523438 189.125 L 273.714844 187 L 271.886719 187.40625 C 271.769531 187.433594 271.648438 187.40625 271.554688 187.332031 C 271.464844 187.257812 271.410156 187.144531 271.410156 187.023438 Z M 271.410156 183.625 " fill-opacity="1" fill-rule="evenodd"/></svg>