<svg xmlns="http://www.w3.org/2000/svg" xmlns:xlink="http://www.w3.org/1999/xlink" width="500" zoomAndPan="magnify" viewBox="0 0 375 374.999991" height="500" preserveAspectRatio="xMidYMid meet" version="1.0"><defs><g/></defs><rect x="-37.5" width="450" fill="#ffffff" y="-37.499999" height="449.999989" fill-opacity="1"/><rect x="-37.5" width="450" fill="#ffffff" y="-37.499999" height="449.999989" fill-opacity="1"/><rect x="-37.5" width="450" fill="#f1efe7" y="-37.499999" height="449.999989" fill-opacity="1"/><g fill="#000000" fill-opacity="1"><g transform="translate(83.41319, 202.877579)"><g><path d="M 43.390625 0 L 41.109375 -28.59375 L 40.828125 -28.59375 L 30.9375 -0.296875 L 24.390625 -0.296875 L 14.5 -28.59375 L 14.21875 -28.59375 L 11.9375 0 L 0.9375 0 L 5.265625 -48.25 L 16.953125 -48.25 L 27.65625 -20.40625 L 38.359375 -48.25 L 50.0625 -48.25 L 54.390625 0 Z M 43.390625 0 "/></g></g></g><g fill="#000000" fill-opacity="1"><g transform="translate(132.005453, 202.877579)"><g><path d="M 5.546875 -3.71875 C 2.742188 -6.78125 1.34375 -10.53125 1.34375 -14.96875 C 1.34375 -19.414062 2.742188 -23.175781 5.546875 -26.25 C 8.359375 -29.332031 11.929688 -30.875 16.265625 -30.875 C 20.234375 -30.875 23.503906 -29.628906 26.078125 -27.140625 L 26.078125 -30 L 36.4375 -30 L 36.4375 0 L 26.203125 0 L 26.203125 -3.390625 L 26.078125 -3.390625 C 23.503906 -0.546875 20.234375 0.875 16.265625 0.875 C 11.929688 0.875 8.359375 -0.65625 5.546875 -3.71875 Z M 14.359375 -20.0625 C 13.015625 -18.738281 12.34375 -17.039062 12.34375 -14.96875 C 12.34375 -12.90625 12.984375 -11.21875 14.265625 -9.90625 C 15.554688 -8.601562 17.253906 -7.953125 19.359375 -7.953125 C 21.390625 -7.953125 23.054688 -8.613281 24.359375 -9.9375 C 25.660156 -11.269531 26.3125 -12.945312 26.3125 -14.96875 C 26.3125 -17.039062 25.640625 -18.738281 24.296875 -20.0625 C 22.953125 -21.382812 21.304688 -22.046875 19.359375 -22.046875 C 17.367188 -22.046875 15.703125 -21.382812 14.359375 -20.0625 Z M 14.359375 -20.0625 "/></g></g></g><g fill="#000000" fill-opacity="1"><g transform="translate(165.218368, 202.877579)"><g><path d="M 5.265625 -30 L 5.265625 -41.171875 L 15.609375 -41.171875 L 15.609375 -30 L 21.9375 -30 L 21.9375 -22.109375 L 15.609375 -22.109375 L 15.609375 -12.578125 C 15.609375 -9.804688 16.390625 -8.421875 17.953125 -8.421875 C 18.347656 -8.421875 18.757812 -8.5 19.1875 -8.65625 C 19.613281 -8.8125 19.941406 -8.96875 20.171875 -9.125 L 20.53125 -9.359375 L 23.09375 -1 C 20.875 0.25 18.34375 0.875 15.5 0.875 C 13.550781 0.875 11.875 0.535156 10.46875 -0.140625 C 9.0625 -0.828125 8 -1.742188 7.28125 -2.890625 C 6.5625 -4.046875 6.046875 -5.253906 5.734375 -6.515625 C 5.421875 -7.785156 5.265625 -9.140625 5.265625 -10.578125 L 5.265625 -22.109375 L 0.9375 -22.109375 L 0.9375 -30 Z M 5.265625 -30 "/></g></g></g><g fill="#000000" fill-opacity="1"><g transform="translate(181.59001, 202.877579)"><g><path d="M 33.859375 -13.5625 L 12.109375 -13.5625 C 12.109375 -11.457031 12.789062 -9.898438 14.15625 -8.890625 C 15.519531 -7.878906 17 -7.375 18.59375 -7.375 C 20.269531 -7.375 21.59375 -7.597656 22.5625 -8.046875 C 23.539062 -8.492188 24.65625 -9.378906 25.90625 -10.703125 L 33.390625 -6.953125 C 30.273438 -1.734375 25.09375 0.875 17.84375 0.875 C 13.3125 0.875 9.425781 -0.671875 6.1875 -3.765625 C 2.957031 -6.867188 1.34375 -10.601562 1.34375 -14.96875 C 1.34375 -19.332031 2.957031 -23.070312 6.1875 -26.1875 C 9.425781 -29.3125 13.3125 -30.875 17.84375 -30.875 C 22.59375 -30.875 26.457031 -29.5 29.4375 -26.75 C 32.425781 -24.007812 33.921875 -20.082031 33.921875 -14.96875 C 33.921875 -14.269531 33.898438 -13.800781 33.859375 -13.5625 Z M 12.40625 -19.296875 L 23.796875 -19.296875 C 23.566406 -20.859375 22.953125 -22.054688 21.953125 -22.890625 C 20.960938 -23.734375 19.6875 -24.15625 18.125 -24.15625 C 16.414062 -24.15625 15.050781 -23.707031 14.03125 -22.8125 C 13.019531 -21.914062 12.476562 -20.742188 12.40625 -19.296875 Z M 12.40625 -19.296875 "/></g></g></g><g fill="#000000" fill-opacity="1"><g transform="translate(210.124799, 202.877579)"><g><path d="M 3.515625 0 L 3.515625 -30 L 13.859375 -30 L 13.859375 -25.671875 L 13.984375 -25.671875 C 14.054688 -25.828125 14.179688 -26.019531 14.359375 -26.25 C 14.535156 -26.488281 14.914062 -26.898438 15.5 -27.484375 C 16.082031 -28.066406 16.703125 -28.59375 17.359375 -29.0625 C 18.023438 -29.53125 18.882812 -29.945312 19.9375 -30.3125 C 20.988281 -30.6875 22.0625 -30.875 23.15625 -30.875 C 24.289062 -30.875 25.398438 -30.71875 26.484375 -30.40625 C 27.578125 -30.09375 28.378906 -29.78125 28.890625 -29.46875 L 29.703125 -29.015625 L 25.375 -20.234375 C 24.09375 -21.328125 22.300781 -21.875 20 -21.875 C 18.75 -21.875 17.675781 -21.597656 16.78125 -21.046875 C 15.882812 -20.503906 15.25 -19.84375 14.875 -19.0625 C 14.507812 -18.28125 14.25 -17.617188 14.09375 -17.078125 C 13.9375 -16.535156 13.859375 -16.109375 13.859375 -15.796875 L 13.859375 0 Z M 3.515625 0 "/></g></g></g><g fill="#000000" fill-opacity="1"><g transform="translate(232.519535, 202.877579)"><g><path d="M 4.5 -46.734375 C 5.707031 -47.941406 7.148438 -48.546875 8.828125 -48.546875 C 10.503906 -48.546875 11.945312 -47.941406 13.15625 -46.734375 C 14.363281 -45.523438 14.96875 -44.082031 14.96875 -42.40625 C 14.96875 -40.726562 14.363281 -39.285156 13.15625 -38.078125 C 11.945312 -36.867188 10.503906 -36.265625 8.828125 -36.265625 C 7.148438 -36.265625 5.707031 -36.867188 4.5 -38.078125 C 3.289062 -39.285156 2.6875 -40.726562 2.6875 -42.40625 C 2.6875 -44.082031 3.289062 -45.523438 4.5 -46.734375 Z M 3.515625 -30 L 3.515625 0 L 13.859375 0 L 13.859375 -30 Z M 3.515625 -30 "/></g></g></g><g fill="#000000" fill-opacity="1"><g transform="translate(243.452853, 202.877579)"><g/></g></g><g fill="#000000" fill-opacity="1"><g transform="translate(252.690352, 202.877579)"><g><path d="M 11.984375 -34.328125 L 3.328125 -38.546875 C 3.410156 -38.816406 3.53125 -39.191406 3.6875 -39.671875 C 3.84375 -40.160156 4.3125 -41.007812 5.09375 -42.21875 C 5.875 -43.425781 6.789062 -44.5 7.84375 -45.4375 C 8.894531 -46.375 10.429688 -47.222656 12.453125 -47.984375 C 14.484375 -48.742188 16.765625 -49.125 19.296875 -49.125 C 23.898438 -49.125 27.691406 -47.804688 30.671875 -45.171875 C 33.660156 -42.546875 35.15625 -39.1875 35.15625 -35.09375 C 35.15625 -31.269531 33.726562 -28.25 30.875 -26.03125 C 34.96875 -23.53125 37.015625 -19.84375 37.015625 -14.96875 C 37.015625 -10.375 35.328125 -6.582031 31.953125 -3.59375 C 28.585938 -0.613281 24.3125 0.875 19.125 0.875 C 16.351562 0.875 13.835938 0.46875 11.578125 -0.34375 C 9.316406 -1.164062 7.550781 -2.148438 6.28125 -3.296875 C 5.019531 -4.453125 3.96875 -5.613281 3.125 -6.78125 C 2.289062 -7.945312 1.71875 -8.941406 1.40625 -9.765625 L 1 -11 L 11.171875 -15.96875 C 11.171875 -15.769531 11.195312 -15.503906 11.25 -15.171875 C 11.3125 -14.835938 11.519531 -14.242188 11.875 -13.390625 C 12.226562 -12.535156 12.65625 -11.785156 13.15625 -11.140625 C 13.664062 -10.492188 14.4375 -9.90625 15.46875 -9.375 C 16.5 -8.851562 17.695312 -8.59375 19.0625 -8.59375 C 21.132812 -8.59375 22.8125 -9.15625 24.09375 -10.28125 C 25.382812 -11.414062 26.03125 -12.976562 26.03125 -14.96875 C 26.03125 -17.039062 25.351562 -18.738281 24 -20.0625 C 22.65625 -21.382812 21.007812 -22.046875 19.0625 -22.046875 L 16.953125 -21.703125 L 16.953125 -28.890625 L 19.359375 -28.890625 C 20.878906 -28.890625 22.222656 -29.472656 23.390625 -30.640625 C 24.554688 -31.816406 25.140625 -33.257812 25.140625 -34.96875 C 25.140625 -36.488281 24.546875 -37.753906 23.359375 -38.765625 C 22.171875 -39.785156 20.78125 -40.296875 19.1875 -40.296875 C 18.050781 -40.296875 17.023438 -40.085938 16.109375 -39.671875 C 15.191406 -39.265625 14.488281 -38.769531 14 -38.1875 C 13.519531 -37.601562 13.113281 -37.019531 12.78125 -36.4375 C 12.445312 -35.851562 12.242188 -35.363281 12.171875 -34.96875 Z M 11.984375 -34.328125 "/></g></g></g><g fill="#000000" fill-opacity="1"><g transform="translate(164.043876, 219.144067)"><g><path d="M 3.09375 -6.519531 L 7.003906 -6.519531 L 7.214844 -7.730469 L 1.757812 -7.730469 L 0.390625 0 L 1.9375 0 L 2.511719 -3.261719 L 6.050781 -3.261719 L 6.261719 -4.480469 L 2.734375 -4.480469 Z M 3.09375 -6.519531 "/></g></g></g><g fill="#000000" fill-opacity="1"><g transform="translate(169.375828, 219.144067)"><g><path d="M 5.121094 -2.332031 L 5.46875 0 L 7.136719 0 L 5.804688 -7.730469 L 3.753906 -7.730469 L -0.347656 0 L 1.320312 0 L 2.488281 -2.332031 Z M 4.941406 -3.550781 L 3.105469 -3.550781 L 4.515625 -6.363281 Z M 4.941406 -3.550781 "/></g></g></g><g fill="#000000" fill-opacity="1"><g transform="translate(175.704858, 219.144067)"><g><path d="M 4.515625 -2.957031 L 8.078125 -7.730469 L 6.34375 -7.730469 L 3.988281 -4.3125 L 2.722656 -7.730469 L 1.085938 -7.730469 L 2.980469 -3.015625 L 2.441406 0 L 3.988281 0 Z M 4.515625 -2.957031 "/></g></g></g><g fill="#000000" fill-opacity="1"><g transform="translate(181.552149, 219.144067)"><g><path d="M 5.492188 -7.675781 C 5.109375 -7.71875 4.816406 -7.730469 4.382812 -7.730469 L 1.757812 -7.730469 L 0.390625 0 L 1.9375 0 L 2.453125 -2.914062 L 3.585938 -2.914062 C 4.035156 -2.914062 4.324219 -2.925781 4.71875 -2.96875 C 6.015625 -3.113281 7.261719 -4.066406 7.261719 -5.75 C 7.261719 -6.902344 6.488281 -7.5625 5.492188 -7.675781 Z M 4.472656 -4.167969 C 4.28125 -4.144531 4.054688 -4.132812 3.789062 -4.132812 L 2.667969 -4.132812 L 3.082031 -6.511719 L 4.203125 -6.511719 C 4.472656 -6.511719 4.71875 -6.5 4.886719 -6.476562 C 5.324219 -6.410156 5.625 -6.128906 5.625 -5.570312 C 5.625 -4.707031 5.121094 -4.269531 4.472656 -4.167969 Z M 4.472656 -4.167969 "/></g></g></g><g fill="#000000" fill-opacity="1"><g transform="translate(187.309821, 219.144067)"><g><path d="M 7.40625 -5.996094 C 7.40625 -7.058594 6.667969 -7.5625 5.703125 -7.675781 C 5.324219 -7.71875 5.03125 -7.730469 4.582031 -7.730469 L 1.757812 -7.730469 L 0.390625 0 L 1.9375 0 L 2.488281 -3.113281 L 3.394531 -3.113281 C 3.597656 -3.113281 3.789062 -3.113281 3.988281 -3.105469 C 4.550781 -3.058594 4.773438 -2.609375 4.773438 -1.894531 C 4.785156 -0.773438 4.808594 -0.371094 4.875 0 L 6.542969 0 C 6.386719 -0.324219 6.320312 -0.785156 6.320312 -1.378906 C 6.320312 -2.867188 6.105469 -3.484375 5.445312 -3.707031 C 6.609375 -4 7.40625 -4.75 7.40625 -5.996094 Z M 4.402344 -4.28125 C 4.214844 -4.269531 4.035156 -4.269531 3.765625 -4.269531 L 2.6875 -4.269531 L 3.09375 -6.519531 L 4.222656 -6.519531 C 4.492188 -6.519531 4.683594 -6.511719 4.863281 -6.488281 C 5.367188 -6.433594 5.714844 -6.195312 5.714844 -5.625 C 5.714844 -4.726562 5.097656 -4.347656 4.402344 -4.28125 Z M 4.402344 -4.28125 "/></g></g></g><g fill="#000000" fill-opacity="1"><g transform="translate(193.246741, 219.144067)"><g><path d="M 5.132812 -7.886719 C 2.386719 -7.886719 0.695312 -5.835938 0.695312 -3.195312 C 0.695312 -1.320312 1.917969 0.15625 4.132812 0.15625 C 6.878906 0.15625 8.570312 -1.894531 8.570312 -4.539062 C 8.570312 -6.410156 7.351562 -7.886719 5.132812 -7.886719 Z M 4.257812 -0.996094 C 3.023438 -0.996094 2.34375 -1.90625 2.34375 -3.226562 C 2.34375 -4.808594 3.195312 -6.734375 5.007812 -6.734375 C 6.230469 -6.734375 6.925781 -5.828125 6.925781 -4.503906 C 6.925781 -2.925781 6.074219 -0.996094 4.257812 -0.996094 Z M 4.257812 -0.996094 "/></g></g></g><g fill="#000000" fill-opacity="1"><g transform="translate(200.70727, 219.144067)"><g><path d="M 5.289062 -7.886719 C 2.824219 -7.886719 0.660156 -5.996094 0.660156 -2.992188 C 0.660156 -1.054688 1.738281 0.15625 3.5625 0.15625 C 4.414062 0.15625 5.054688 -0.0429688 5.558594 -0.46875 L 6.039062 -1.242188 L 5.925781 0 L 7.171875 0 L 7.867188 -3.945312 L 4.75 -3.945312 L 4.527344 -2.734375 L 6.164062 -2.734375 C 5.828125 -1.648438 5.007812 -0.996094 4.011719 -0.996094 C 3.003906 -0.996094 2.332031 -1.746094 2.332031 -3.183594 C 2.332031 -5.332031 3.574219 -6.734375 5.066406 -6.734375 C 6.085938 -6.734375 6.589844 -6.285156 6.601562 -5.222656 L 6.601562 -5.109375 L 8.144531 -5.109375 L 8.15625 -5.222656 C 8.269531 -6.746094 7.382812 -7.886719 5.289062 -7.886719 Z M 5.289062 -7.886719 "/></g></g></g><g fill="#000000" fill-opacity="1"><g transform="translate(208.033365, 219.144067)"><g><path d="M 1.054688 -1.726562 C 0.402344 -1.726562 -0.0664062 -1.265625 -0.0664062 -0.582031 C -0.0664062 -0.125 0.269531 0.15625 0.71875 0.15625 C 1.367188 0.15625 1.835938 -0.292969 1.835938 -0.976562 C 1.835938 -1.445312 1.5 -1.726562 1.054688 -1.726562 Z M 1.054688 -1.726562 "/></g></g></g></svg>